<mxfile host="app.diagrams.net" modified="2023-06-18T12:32:05.662Z" agent="Mozilla/5.0 (Macintosh; Intel Mac OS X 10_15_7) AppleWebKit/537.36 (KHTML, like Gecko) Chrome/114.0.0.0 Safari/537.36" etag="PzB6dSQRdcSlopm4NiLR" version="21.3.8" type="github" pages="6">
  <diagram id="gTkJWe4NWbUpQ9rPdP-0" name="DataFlowChart_v.1.0.0">
    <mxGraphModel dx="857" dy="1102" grid="1" gridSize="10" guides="1" tooltips="1" connect="1" arrows="1" fold="1" page="1" pageScale="1" pageWidth="827" pageHeight="1169" math="0" shadow="0">
      <root>
        <mxCell id="0" />
        <mxCell id="1" parent="0" />
        <mxCell id="I5xkRj2H4h0Pu4AvLmMH-1" style="edgeStyle=orthogonalEdgeStyle;rounded=0;orthogonalLoop=1;jettySize=auto;html=1;exitX=1;exitY=0.25;exitDx=0;exitDy=0;entryX=0.044;entryY=0.333;entryDx=0;entryDy=0;entryPerimeter=0;fontFamily=Helvetica;fontSize=12;fontColor=default;strokeWidth=3;" parent="1" source="I5xkRj2H4h0Pu4AvLmMH-3" target="I5xkRj2H4h0Pu4AvLmMH-10" edge="1">
          <mxGeometry relative="1" as="geometry" />
        </mxCell>
        <mxCell id="I5xkRj2H4h0Pu4AvLmMH-2" value="Select Age, Stage, dificulty&amp;nbsp;" style="edgeLabel;html=1;align=center;verticalAlign=middle;resizable=0;points=[];fontSize=12;fontFamily=Helvetica;fontColor=default;" parent="I5xkRj2H4h0Pu4AvLmMH-1" vertex="1" connectable="0">
          <mxGeometry x="-0.3331" y="4" relative="1" as="geometry">
            <mxPoint x="35" as="offset" />
          </mxGeometry>
        </mxCell>
        <mxCell id="I5xkRj2H4h0Pu4AvLmMH-3" value="&lt;span style=&quot;font-size: 16px;&quot;&gt;Player&lt;/span&gt;" style="rounded=0;whiteSpace=wrap;html=1;fillColor=none;strokeWidth=4;" parent="1" vertex="1">
          <mxGeometry x="40" y="320" width="120" height="60" as="geometry" />
        </mxCell>
        <mxCell id="I5xkRj2H4h0Pu4AvLmMH-4" style="edgeStyle=orthogonalEdgeStyle;rounded=0;orthogonalLoop=1;jettySize=auto;html=1;exitX=0;exitY=0;exitDx=0;exitDy=0;entryX=0.25;entryY=1;entryDx=0;entryDy=0;fontFamily=Helvetica;fontSize=12;fontColor=default;strokeWidth=3;" parent="1" source="I5xkRj2H4h0Pu4AvLmMH-10" edge="1">
          <mxGeometry relative="1" as="geometry">
            <mxPoint x="393" y="150" as="targetPoint" />
          </mxGeometry>
        </mxCell>
        <mxCell id="I5xkRj2H4h0Pu4AvLmMH-5" value="Information Request" style="edgeLabel;html=1;align=center;verticalAlign=middle;resizable=0;points=[];fontSize=12;fontFamily=Helvetica;fontColor=default;" parent="I5xkRj2H4h0Pu4AvLmMH-4" vertex="1" connectable="0">
          <mxGeometry x="0.0984" y="2" relative="1" as="geometry">
            <mxPoint as="offset" />
          </mxGeometry>
        </mxCell>
        <mxCell id="I5xkRj2H4h0Pu4AvLmMH-6" style="edgeStyle=orthogonalEdgeStyle;shape=connector;rounded=0;orthogonalLoop=1;jettySize=auto;html=1;exitX=0;exitY=0.5;exitDx=0;exitDy=0;labelBackgroundColor=default;strokeColor=default;strokeWidth=3;fontFamily=Helvetica;fontSize=12;fontColor=default;endArrow=classic;" parent="1" source="I5xkRj2H4h0Pu4AvLmMH-10" target="I5xkRj2H4h0Pu4AvLmMH-3" edge="1">
          <mxGeometry relative="1" as="geometry" />
        </mxCell>
        <mxCell id="I5xkRj2H4h0Pu4AvLmMH-7" value="Game Display" style="edgeLabel;html=1;align=center;verticalAlign=middle;resizable=0;points=[];fontSize=12;fontFamily=Helvetica;fontColor=default;" parent="I5xkRj2H4h0Pu4AvLmMH-6" vertex="1" connectable="0">
          <mxGeometry x="0.3364" y="2" relative="1" as="geometry">
            <mxPoint x="37" y="-2" as="offset" />
          </mxGeometry>
        </mxCell>
        <mxCell id="I5xkRj2H4h0Pu4AvLmMH-10" value="&lt;font style=&quot;font-size: 16px;&quot;&gt;Run Game&lt;/font&gt;" style="ellipse;whiteSpace=wrap;html=1;aspect=fixed;rounded=0;strokeColor=default;strokeWidth=4;fontFamily=Helvetica;fontSize=12;fontColor=default;fillColor=none;" parent="1" vertex="1">
          <mxGeometry x="380" y="305" width="90" height="90" as="geometry" />
        </mxCell>
        <mxCell id="I5xkRj2H4h0Pu4AvLmMH-11" style="shape=connector;rounded=0;orthogonalLoop=1;jettySize=auto;html=1;entryX=0.5;entryY=1;entryDx=0;entryDy=0;labelBackgroundColor=default;strokeColor=default;strokeWidth=3;fontFamily=Helvetica;fontSize=12;fontColor=default;endArrow=classic;" parent="1" source="I5xkRj2H4h0Pu4AvLmMH-15" target="I5xkRj2H4h0Pu4AvLmMH-3" edge="1">
          <mxGeometry relative="1" as="geometry" />
        </mxCell>
        <mxCell id="I5xkRj2H4h0Pu4AvLmMH-12" value="Display" style="edgeLabel;html=1;align=center;verticalAlign=middle;resizable=0;points=[];fontSize=12;fontFamily=Helvetica;fontColor=default;" parent="I5xkRj2H4h0Pu4AvLmMH-11" vertex="1" connectable="0">
          <mxGeometry x="0.0953" y="5" relative="1" as="geometry">
            <mxPoint as="offset" />
          </mxGeometry>
        </mxCell>
        <mxCell id="I5xkRj2H4h0Pu4AvLmMH-13" style="shape=connector;rounded=0;orthogonalLoop=1;jettySize=auto;html=1;exitX=0;exitY=1;exitDx=0;exitDy=0;labelBackgroundColor=default;strokeColor=default;strokeWidth=3;fontFamily=Helvetica;fontSize=12;fontColor=default;endArrow=classic;" parent="1" edge="1">
          <mxGeometry relative="1" as="geometry">
            <mxPoint x="397" y="754" as="targetPoint" />
            <mxPoint x="397.1801948466052" y="610.8198051533948" as="sourcePoint" />
          </mxGeometry>
        </mxCell>
        <mxCell id="I5xkRj2H4h0Pu4AvLmMH-14" value="Information Request" style="edgeLabel;html=1;align=center;verticalAlign=middle;resizable=0;points=[];fontSize=12;fontFamily=Helvetica;fontColor=default;" parent="I5xkRj2H4h0Pu4AvLmMH-13" vertex="1" connectable="0">
          <mxGeometry x="-0.2432" relative="1" as="geometry">
            <mxPoint x="-7" y="9" as="offset" />
          </mxGeometry>
        </mxCell>
        <mxCell id="I5xkRj2H4h0Pu4AvLmMH-15" value="&lt;span style=&quot;font-size: 16px;&quot;&gt;&amp;nbsp;Display End game Credits&lt;/span&gt;" style="ellipse;whiteSpace=wrap;html=1;aspect=fixed;rounded=0;strokeColor=default;strokeWidth=4;fontFamily=Helvetica;fontSize=12;fontColor=default;fillColor=none;" parent="1" vertex="1">
          <mxGeometry x="380" y="530" width="90" height="90" as="geometry" />
        </mxCell>
        <mxCell id="I5xkRj2H4h0Pu4AvLmMH-16" style="edgeStyle=orthogonalEdgeStyle;rounded=0;orthogonalLoop=1;jettySize=auto;html=1;exitX=0.75;exitY=1;exitDx=0;exitDy=0;entryX=1;entryY=0;entryDx=0;entryDy=0;fontFamily=Helvetica;fontSize=12;fontColor=default;strokeWidth=3;" parent="1" target="I5xkRj2H4h0Pu4AvLmMH-10" edge="1">
          <mxGeometry relative="1" as="geometry">
            <mxPoint x="453" y="150" as="sourcePoint" />
            <Array as="points">
              <mxPoint x="457" y="150" />
            </Array>
          </mxGeometry>
        </mxCell>
        <mxCell id="I5xkRj2H4h0Pu4AvLmMH-17" value="Set Game Detail" style="edgeLabel;html=1;align=center;verticalAlign=middle;resizable=0;points=[];fontSize=12;fontFamily=Helvetica;fontColor=default;" parent="I5xkRj2H4h0Pu4AvLmMH-16" vertex="1" connectable="0">
          <mxGeometry x="-0.4965" relative="1" as="geometry">
            <mxPoint as="offset" />
          </mxGeometry>
        </mxCell>
        <mxCell id="I5xkRj2H4h0Pu4AvLmMH-18" value="&lt;span style=&quot;font-size: 17px; background-color: rgb(251, 251, 251);&quot;&gt;Age, Stage, Difficulty File&lt;/span&gt;" style="shape=link;html=1;rounded=0;fontFamily=Helvetica;fontSize=12;fontColor=default;width=52;strokeWidth=5;" parent="1" edge="1">
          <mxGeometry width="100" relative="1" as="geometry">
            <mxPoint x="380" y="120" as="sourcePoint" />
            <mxPoint x="480" y="120" as="targetPoint" />
          </mxGeometry>
        </mxCell>
        <mxCell id="I5xkRj2H4h0Pu4AvLmMH-20" style="shape=connector;rounded=0;orthogonalLoop=1;jettySize=auto;html=1;exitX=0;exitY=0;exitDx=0;exitDy=0;entryX=1;entryY=1;entryDx=0;entryDy=0;labelBackgroundColor=default;strokeColor=default;strokeWidth=3;fontFamily=Helvetica;fontSize=12;fontColor=default;endArrow=classic;" parent="1" source="I5xkRj2H4h0Pu4AvLmMH-24" target="I5xkRj2H4h0Pu4AvLmMH-10" edge="1">
          <mxGeometry relative="1" as="geometry" />
        </mxCell>
        <mxCell id="I5xkRj2H4h0Pu4AvLmMH-21" value="Load Complete Page&lt;br&gt;or Run Game" style="edgeLabel;html=1;align=center;verticalAlign=middle;resizable=0;points=[];fontSize=12;fontFamily=Helvetica;fontColor=default;" parent="I5xkRj2H4h0Pu4AvLmMH-20" vertex="1" connectable="0">
          <mxGeometry x="0.0757" y="-2" relative="1" as="geometry">
            <mxPoint y="1" as="offset" />
          </mxGeometry>
        </mxCell>
        <mxCell id="I5xkRj2H4h0Pu4AvLmMH-22" style="shape=connector;rounded=0;orthogonalLoop=1;jettySize=auto;html=1;exitX=0;exitY=1;exitDx=0;exitDy=0;entryX=1;entryY=1;entryDx=0;entryDy=0;labelBackgroundColor=default;strokeColor=default;strokeWidth=3;fontFamily=Helvetica;fontSize=12;fontColor=default;endArrow=classic;" parent="1" source="I5xkRj2H4h0Pu4AvLmMH-24" target="I5xkRj2H4h0Pu4AvLmMH-15" edge="1">
          <mxGeometry relative="1" as="geometry" />
        </mxCell>
        <mxCell id="I5xkRj2H4h0Pu4AvLmMH-23" value="No more Heart or&lt;br&gt;Fill 10 hearts" style="edgeLabel;html=1;align=center;verticalAlign=middle;resizable=0;points=[];fontSize=12;fontFamily=Helvetica;fontColor=default;" parent="I5xkRj2H4h0Pu4AvLmMH-22" vertex="1" connectable="0">
          <mxGeometry x="0.1125" y="1" relative="1" as="geometry">
            <mxPoint x="9" y="1" as="offset" />
          </mxGeometry>
        </mxCell>
        <mxCell id="I5xkRj2H4h0Pu4AvLmMH-24" value="&lt;font style=&quot;font-size: 16px;&quot;&gt;Calculate &lt;br&gt;if another Complete Level&lt;br&gt;&lt;/font&gt;" style="ellipse;whiteSpace=wrap;html=1;aspect=fixed;rounded=0;strokeColor=default;strokeWidth=4;fontFamily=Helvetica;fontSize=12;fontColor=default;fillColor=none;" parent="1" vertex="1">
          <mxGeometry x="630" y="460" width="110" height="110" as="geometry" />
        </mxCell>
        <mxCell id="I5xkRj2H4h0Pu4AvLmMH-25" value="&lt;span style=&quot;font-size: 17px; background-color: rgb(251, 251, 251);&quot;&gt;Play Log&lt;/span&gt;" style="shape=link;html=1;rounded=0;fontFamily=Helvetica;fontSize=12;fontColor=default;width=52;strokeWidth=5;" parent="1" edge="1">
          <mxGeometry width="100" relative="1" as="geometry">
            <mxPoint x="375" y="780" as="sourcePoint" />
            <mxPoint x="475" y="780" as="targetPoint" />
          </mxGeometry>
        </mxCell>
        <mxCell id="I5xkRj2H4h0Pu4AvLmMH-26" style="shape=connector;rounded=0;orthogonalLoop=1;jettySize=auto;html=1;labelBackgroundColor=default;strokeColor=default;strokeWidth=3;fontFamily=Helvetica;fontSize=12;fontColor=default;endArrow=classic;entryX=0.5;entryY=1;entryDx=0;entryDy=0;" parent="1" edge="1">
          <mxGeometry relative="1" as="geometry">
            <mxPoint x="448" y="620" as="targetPoint" />
            <mxPoint x="448" y="750" as="sourcePoint" />
          </mxGeometry>
        </mxCell>
        <mxCell id="I5xkRj2H4h0Pu4AvLmMH-27" value="Judgment Log Based on user&lt;br&gt;Behavior" style="edgeLabel;html=1;align=center;verticalAlign=middle;resizable=0;points=[];fontSize=12;fontFamily=Helvetica;fontColor=default;" parent="I5xkRj2H4h0Pu4AvLmMH-26" vertex="1" connectable="0">
          <mxGeometry x="-0.2432" relative="1" as="geometry">
            <mxPoint x="15" y="9" as="offset" />
          </mxGeometry>
        </mxCell>
        <mxCell id="I5xkRj2H4h0Pu4AvLmMH-28" value="&lt;h1&gt;FaT DataFlowChart_v.0.0.1&lt;/h1&gt;" style="text;html=1;strokeColor=none;fillColor=none;spacing=5;spacingTop=-20;whiteSpace=wrap;overflow=hidden;rounded=0;fontSize=12;fontFamily=Helvetica;fontColor=default;" parent="1" vertex="1">
          <mxGeometry x="50" y="30" width="370" height="40" as="geometry" />
        </mxCell>
      </root>
    </mxGraphModel>
  </diagram>
  <diagram id="OEheiVHhas0fmasYpalY" name="DataFlowChart_v.1.0.1(level 0)">
    <mxGraphModel dx="514" dy="661" grid="1" gridSize="10" guides="1" tooltips="1" connect="1" arrows="1" fold="1" page="1" pageScale="1" pageWidth="827" pageHeight="1169" math="0" shadow="0">
      <root>
        <mxCell id="0" />
        <mxCell id="1" parent="0" />
        <mxCell id="pvZULBGsba6o38qMsQGz-29" style="edgeStyle=orthogonalEdgeStyle;rounded=0;orthogonalLoop=1;jettySize=auto;html=1;exitX=1;exitY=0.5;exitDx=0;exitDy=0;fontFamily=Helvetica;fontSize=12;fontColor=default;strokeWidth=3;" parent="1" source="pvZULBGsba6o38qMsQGz-26" target="pvZULBGsba6o38qMsQGz-27" edge="1">
          <mxGeometry relative="1" as="geometry" />
        </mxCell>
        <mxCell id="pvZULBGsba6o38qMsQGz-30" value="&lt;font style=&quot;font-size: 15px;&quot;&gt;게임 플레이&lt;/font&gt;" style="edgeLabel;html=1;align=center;verticalAlign=middle;resizable=0;points=[];fontSize=12;fontFamily=Helvetica;fontColor=default;" parent="pvZULBGsba6o38qMsQGz-29" vertex="1" connectable="0">
          <mxGeometry x="-0.2174" y="1" relative="1" as="geometry">
            <mxPoint x="17" y="1" as="offset" />
          </mxGeometry>
        </mxCell>
        <mxCell id="pvZULBGsba6o38qMsQGz-26" value="&lt;font style=&quot;font-size: 18px;&quot;&gt;모바일 디바이스&lt;/font&gt;" style="rounded=0;whiteSpace=wrap;html=1;fillColor=none;strokeWidth=5;" parent="1" vertex="1">
          <mxGeometry x="80" y="525" width="120" height="60" as="geometry" />
        </mxCell>
        <mxCell id="pvZULBGsba6o38qMsQGz-31" style="edgeStyle=orthogonalEdgeStyle;rounded=0;orthogonalLoop=1;jettySize=auto;html=1;exitX=1;exitY=0.5;exitDx=0;exitDy=0;fontFamily=Helvetica;fontSize=12;fontColor=default;strokeWidth=3;entryX=0;entryY=0.5;entryDx=0;entryDy=0;" parent="1" target="pvZULBGsba6o38qMsQGz-28" edge="1">
          <mxGeometry relative="1" as="geometry">
            <mxPoint x="466" y="552" as="sourcePoint" />
            <mxPoint x="610" y="552" as="targetPoint" />
          </mxGeometry>
        </mxCell>
        <mxCell id="pvZULBGsba6o38qMsQGz-32" value="" style="edgeLabel;html=1;align=center;verticalAlign=middle;resizable=0;points=[];fontSize=12;fontFamily=Helvetica;fontColor=default;" parent="pvZULBGsba6o38qMsQGz-31" vertex="1" connectable="0">
          <mxGeometry x="-0.3056" y="1" relative="1" as="geometry">
            <mxPoint as="offset" />
          </mxGeometry>
        </mxCell>
        <mxCell id="pvZULBGsba6o38qMsQGz-33" value="&lt;font style=&quot;font-size: 15px;&quot;&gt;게임 플레이 결과&lt;/font&gt;" style="edgeLabel;html=1;align=center;verticalAlign=middle;resizable=0;points=[];fontSize=12;fontFamily=Helvetica;fontColor=default;" parent="pvZULBGsba6o38qMsQGz-31" vertex="1" connectable="0">
          <mxGeometry x="-0.2083" y="-1" relative="1" as="geometry">
            <mxPoint x="14" as="offset" />
          </mxGeometry>
        </mxCell>
        <mxCell id="pvZULBGsba6o38qMsQGz-27" value="&lt;font style=&quot;font-size: 18px;&quot;&gt;FaT&lt;br&gt;시뮬레이터&lt;br&gt;&lt;/font&gt;" style="ellipse;whiteSpace=wrap;html=1;aspect=fixed;rounded=0;strokeColor=default;strokeWidth=5;fontFamily=Helvetica;fontSize=12;fontColor=default;fillColor=none;" parent="1" vertex="1">
          <mxGeometry x="361" y="502.5" width="105" height="105" as="geometry" />
        </mxCell>
        <mxCell id="pvZULBGsba6o38qMsQGz-28" value="&lt;font style=&quot;font-size: 18px;&quot;&gt;모바일 디바이스&lt;/font&gt;" style="rounded=0;whiteSpace=wrap;html=1;fillColor=none;strokeWidth=5;" parent="1" vertex="1">
          <mxGeometry x="630" y="525" width="120" height="60" as="geometry" />
        </mxCell>
      </root>
    </mxGraphModel>
  </diagram>
  <diagram id="AWbx5CCsgF1BXBOmFULy" name="DataFlowChart_v.1.0.1(level 1)">
    <mxGraphModel dx="1026" dy="604" grid="1" gridSize="10" guides="1" tooltips="1" connect="1" arrows="1" fold="1" page="1" pageScale="1" pageWidth="827" pageHeight="1169" math="0" shadow="0">
      <root>
        <mxCell id="0" />
        <mxCell id="1" parent="0" />
        <mxCell id="UiBKvbhyBBS0NYYCELsj-2" style="edgeStyle=orthogonalEdgeStyle;rounded=0;orthogonalLoop=1;jettySize=auto;html=1;exitX=1;exitY=0.5;exitDx=0;exitDy=0;entryX=0;entryY=0.5;entryDx=0;entryDy=0;fontFamily=Helvetica;fontSize=12;fontColor=default;strokeWidth=3;" parent="1" source="O8XVSUP1KVkUiKT83CBr-1" edge="1">
          <mxGeometry relative="1" as="geometry">
            <mxPoint x="346" y="170" as="targetPoint" />
          </mxGeometry>
        </mxCell>
        <mxCell id="UiBKvbhyBBS0NYYCELsj-4" value="&lt;font style=&quot;font-size: 13px;&quot;&gt;게임 실행&lt;/font&gt;" style="edgeLabel;html=1;align=center;verticalAlign=middle;resizable=0;points=[];fontSize=12;fontFamily=Helvetica;fontColor=default;" parent="UiBKvbhyBBS0NYYCELsj-2" vertex="1" connectable="0">
          <mxGeometry x="-0.05" relative="1" as="geometry">
            <mxPoint x="-1" as="offset" />
          </mxGeometry>
        </mxCell>
        <mxCell id="O8XVSUP1KVkUiKT83CBr-1" value="&lt;font style=&quot;font-size: 12px;&quot;&gt;모바일 디바이스&lt;/font&gt;" style="rounded=0;whiteSpace=wrap;html=1;fillColor=none;strokeWidth=5;" parent="1" vertex="1">
          <mxGeometry x="126" y="145" width="100" height="50" as="geometry" />
        </mxCell>
        <mxCell id="UXiXMVXPrnE1XKQEaYbI-3" value="" style="html=1;dashed=0;whiteSpace=wrap;shape=mxgraph.dfd.dataStoreID;align=left;spacingLeft=3;points=[[0,0],[0.5,0],[1,0],[0,0.5],[1,0.5],[0,1],[0.5,1],[1,1]];rounded=0;strokeColor=default;strokeWidth=5;fontFamily=Helvetica;fontSize=12;fontColor=default;fillColor=none;" parent="1" vertex="1">
          <mxGeometry x="596" y="247.5" width="180" height="35" as="geometry" />
        </mxCell>
        <mxCell id="UXiXMVXPrnE1XKQEaYbI-59" value="" style="edgeStyle=orthogonalEdgeStyle;shape=connector;rounded=0;orthogonalLoop=1;jettySize=auto;html=1;labelBackgroundColor=default;strokeColor=default;strokeWidth=3;fontFamily=Helvetica;fontSize=12;fontColor=default;endArrow=classic;" parent="1" source="UXiXMVXPrnE1XKQEaYbI-53" target="UXiXMVXPrnE1XKQEaYbI-58" edge="1">
          <mxGeometry relative="1" as="geometry" />
        </mxCell>
        <mxCell id="2a-4Us2fa9Qr16Q9Qvye-5" value="사용자의 연령층 선택" style="edgeLabel;html=1;align=center;verticalAlign=middle;resizable=0;points=[];fontSize=12;fontFamily=Helvetica;fontColor=default;" parent="UXiXMVXPrnE1XKQEaYbI-59" vertex="1" connectable="0">
          <mxGeometry x="-0.2989" y="1" relative="1" as="geometry">
            <mxPoint as="offset" />
          </mxGeometry>
        </mxCell>
        <mxCell id="UXiXMVXPrnE1XKQEaYbI-62" style="edgeStyle=orthogonalEdgeStyle;shape=connector;rounded=0;orthogonalLoop=1;jettySize=auto;html=1;entryX=0.5;entryY=0;entryDx=0;entryDy=0;labelBackgroundColor=default;strokeColor=default;strokeWidth=3;fontFamily=Helvetica;fontSize=12;fontColor=default;endArrow=classic;" parent="1" source="UXiXMVXPrnE1XKQEaYbI-53" target="UXiXMVXPrnE1XKQEaYbI-3" edge="1">
          <mxGeometry relative="1" as="geometry" />
        </mxCell>
        <mxCell id="UXiXMVXPrnE1XKQEaYbI-63" value="&lt;font style=&quot;font-size: 13px;&quot;&gt;선택 값 저장&lt;/font&gt;" style="edgeLabel;html=1;align=center;verticalAlign=middle;resizable=0;points=[];fontSize=12;fontFamily=Helvetica;fontColor=default;" parent="UXiXMVXPrnE1XKQEaYbI-62" vertex="1" connectable="0">
          <mxGeometry x="-0.5701" relative="1" as="geometry">
            <mxPoint x="9" as="offset" />
          </mxGeometry>
        </mxCell>
        <mxCell id="UXiXMVXPrnE1XKQEaYbI-53" value="&lt;font color=&quot;#00cc00&quot;&gt;CH01&lt;/font&gt;&lt;br&gt;연령층 선택" style="shape=process;whiteSpace=wrap;html=1;backgroundOutline=1;rounded=0;strokeColor=default;strokeWidth=5;fontFamily=Helvetica;fontSize=12;fontColor=default;fillColor=none;" parent="1" vertex="1">
          <mxGeometry x="346" y="145" width="120" height="50" as="geometry" />
        </mxCell>
        <mxCell id="UXiXMVXPrnE1XKQEaYbI-61" value="" style="edgeStyle=orthogonalEdgeStyle;shape=connector;rounded=0;orthogonalLoop=1;jettySize=auto;html=1;labelBackgroundColor=default;strokeColor=default;strokeWidth=3;fontFamily=Helvetica;fontSize=12;fontColor=default;endArrow=classic;" parent="1" source="UXiXMVXPrnE1XKQEaYbI-58" target="UXiXMVXPrnE1XKQEaYbI-60" edge="1">
          <mxGeometry relative="1" as="geometry" />
        </mxCell>
        <mxCell id="2a-4Us2fa9Qr16Q9Qvye-6" value="사용자의 스테이지 선택" style="edgeLabel;html=1;align=center;verticalAlign=middle;resizable=0;points=[];fontSize=12;fontFamily=Helvetica;fontColor=default;" parent="UXiXMVXPrnE1XKQEaYbI-61" vertex="1" connectable="0">
          <mxGeometry x="-0.169" y="3" relative="1" as="geometry">
            <mxPoint as="offset" />
          </mxGeometry>
        </mxCell>
        <mxCell id="UXiXMVXPrnE1XKQEaYbI-64" style="edgeStyle=orthogonalEdgeStyle;shape=connector;rounded=0;orthogonalLoop=1;jettySize=auto;html=1;exitX=1;exitY=0.5;exitDx=0;exitDy=0;labelBackgroundColor=default;strokeColor=default;strokeWidth=3;fontFamily=Helvetica;fontSize=12;fontColor=default;endArrow=classic;" parent="1" source="UXiXMVXPrnE1XKQEaYbI-58" target="UXiXMVXPrnE1XKQEaYbI-3" edge="1">
          <mxGeometry relative="1" as="geometry" />
        </mxCell>
        <mxCell id="UXiXMVXPrnE1XKQEaYbI-65" value="&lt;font style=&quot;font-size: 13px;&quot;&gt;선택 값 저장&lt;/font&gt;" style="edgeLabel;html=1;align=center;verticalAlign=middle;resizable=0;points=[];fontSize=12;fontFamily=Helvetica;fontColor=default;" parent="UXiXMVXPrnE1XKQEaYbI-64" vertex="1" connectable="0">
          <mxGeometry x="-0.1923" y="-1" relative="1" as="geometry">
            <mxPoint x="18" y="-1" as="offset" />
          </mxGeometry>
        </mxCell>
        <mxCell id="UXiXMVXPrnE1XKQEaYbI-58" value="&lt;font color=&quot;#00cc00&quot;&gt;CH02-ASt&lt;/font&gt;&lt;br&gt;스테이지 선택" style="shape=process;whiteSpace=wrap;html=1;backgroundOutline=1;rounded=0;strokeColor=default;strokeWidth=5;fontFamily=Helvetica;fontSize=12;fontColor=default;fillColor=none;" parent="1" vertex="1">
          <mxGeometry x="346" y="240" width="120" height="50" as="geometry" />
        </mxCell>
        <mxCell id="UXiXMVXPrnE1XKQEaYbI-66" style="edgeStyle=orthogonalEdgeStyle;shape=connector;rounded=0;orthogonalLoop=1;jettySize=auto;html=1;exitX=1;exitY=0.5;exitDx=0;exitDy=0;entryX=0.5;entryY=1;entryDx=0;entryDy=0;labelBackgroundColor=default;strokeColor=default;strokeWidth=3;fontFamily=Helvetica;fontSize=12;fontColor=default;endArrow=classic;" parent="1" source="UXiXMVXPrnE1XKQEaYbI-60" target="UXiXMVXPrnE1XKQEaYbI-3" edge="1">
          <mxGeometry relative="1" as="geometry" />
        </mxCell>
        <mxCell id="UXiXMVXPrnE1XKQEaYbI-67" value="선택 값 저장" style="edgeLabel;html=1;align=center;verticalAlign=middle;resizable=0;points=[];fontSize=12;fontFamily=Helvetica;fontColor=default;" parent="UXiXMVXPrnE1XKQEaYbI-66" vertex="1" connectable="0">
          <mxGeometry x="-0.5445" relative="1" as="geometry">
            <mxPoint x="2" as="offset" />
          </mxGeometry>
        </mxCell>
        <mxCell id="UXiXMVXPrnE1XKQEaYbI-68" style="edgeStyle=orthogonalEdgeStyle;shape=connector;rounded=0;orthogonalLoop=1;jettySize=auto;html=1;labelBackgroundColor=default;strokeColor=default;strokeWidth=3;fontFamily=Helvetica;fontSize=12;fontColor=default;endArrow=classic;entryX=0.5;entryY=0;entryDx=0;entryDy=0;" parent="1" source="UXiXMVXPrnE1XKQEaYbI-60" target="UXiXMVXPrnE1XKQEaYbI-69" edge="1">
          <mxGeometry relative="1" as="geometry">
            <mxPoint x="406" y="510" as="targetPoint" />
          </mxGeometry>
        </mxCell>
        <mxCell id="2a-4Us2fa9Qr16Q9Qvye-7" value="사용자의 난이도 선택" style="edgeLabel;html=1;align=center;verticalAlign=middle;resizable=0;points=[];fontSize=12;fontFamily=Helvetica;fontColor=default;" parent="UXiXMVXPrnE1XKQEaYbI-68" vertex="1" connectable="0">
          <mxGeometry x="-0.3023" relative="1" as="geometry">
            <mxPoint y="1" as="offset" />
          </mxGeometry>
        </mxCell>
        <mxCell id="UXiXMVXPrnE1XKQEaYbI-60" value="&lt;font color=&quot;#00cc00&quot;&gt;CH03&lt;/font&gt;&lt;br&gt;난이도 선택" style="shape=process;whiteSpace=wrap;html=1;backgroundOutline=1;rounded=0;strokeColor=default;strokeWidth=5;fontFamily=Helvetica;fontSize=12;fontColor=default;fillColor=none;" parent="1" vertex="1">
          <mxGeometry x="346" y="340" width="120" height="50" as="geometry" />
        </mxCell>
        <mxCell id="UXiXMVXPrnE1XKQEaYbI-74" style="edgeStyle=orthogonalEdgeStyle;shape=connector;rounded=0;orthogonalLoop=1;jettySize=auto;html=1;exitX=0;exitY=0.5;exitDx=0;exitDy=0;entryX=0.5;entryY=0;entryDx=0;entryDy=0;labelBackgroundColor=default;strokeColor=default;strokeWidth=3;fontFamily=Helvetica;fontSize=12;fontColor=default;endArrow=classic;" parent="1" source="UXiXMVXPrnE1XKQEaYbI-69" target="UXiXMVXPrnE1XKQEaYbI-73" edge="1">
          <mxGeometry relative="1" as="geometry" />
        </mxCell>
        <mxCell id="UXiXMVXPrnE1XKQEaYbI-75" value="선택한 대화" style="edgeLabel;html=1;align=center;verticalAlign=middle;resizable=0;points=[];fontSize=12;fontFamily=Helvetica;fontColor=default;" parent="UXiXMVXPrnE1XKQEaYbI-74" vertex="1" connectable="0">
          <mxGeometry x="0.1837" relative="1" as="geometry">
            <mxPoint x="-22" y="25" as="offset" />
          </mxGeometry>
        </mxCell>
        <mxCell id="UXiXMVXPrnE1XKQEaYbI-77" value="" style="edgeStyle=orthogonalEdgeStyle;shape=connector;rounded=0;orthogonalLoop=1;jettySize=auto;html=1;labelBackgroundColor=default;strokeColor=default;strokeWidth=3;fontFamily=Helvetica;fontSize=12;fontColor=default;endArrow=classic;" parent="1" source="UXiXMVXPrnE1XKQEaYbI-69" target="UXiXMVXPrnE1XKQEaYbI-76" edge="1">
          <mxGeometry relative="1" as="geometry" />
        </mxCell>
        <mxCell id="2a-4Us2fa9Qr16Q9Qvye-8" value="NPC 상태 클리어" style="edgeLabel;html=1;align=center;verticalAlign=middle;resizable=0;points=[];fontSize=12;fontFamily=Helvetica;fontColor=default;" parent="UXiXMVXPrnE1XKQEaYbI-77" vertex="1" connectable="0">
          <mxGeometry x="-0.2627" relative="1" as="geometry">
            <mxPoint as="offset" />
          </mxGeometry>
        </mxCell>
        <mxCell id="UXiXMVXPrnE1XKQEaYbI-69" value="&lt;font color=&quot;#00cc00&quot;&gt;CH04-P01&lt;/font&gt;&lt;br&gt;FaT 플레이 1.&lt;br&gt;NPC 상대" style="shape=process;whiteSpace=wrap;html=1;backgroundOutline=1;rounded=0;strokeColor=default;strokeWidth=5;fontFamily=Helvetica;fontSize=12;fontColor=default;fillColor=none;" parent="1" vertex="1">
          <mxGeometry x="346" y="444" width="120" height="50" as="geometry" />
        </mxCell>
        <mxCell id="UXiXMVXPrnE1XKQEaYbI-71" style="edgeStyle=orthogonalEdgeStyle;shape=connector;rounded=0;orthogonalLoop=1;jettySize=auto;html=1;labelBackgroundColor=default;strokeColor=default;strokeWidth=3;fontFamily=Helvetica;fontSize=12;fontColor=default;endArrow=classic;entryX=1;entryY=0.5;entryDx=0;entryDy=0;exitX=0.666;exitY=1.016;exitDx=0;exitDy=0;exitPerimeter=0;" parent="1" source="UXiXMVXPrnE1XKQEaYbI-3" target="UXiXMVXPrnE1XKQEaYbI-69" edge="1">
          <mxGeometry relative="1" as="geometry">
            <mxPoint x="706" y="307" as="sourcePoint" />
            <mxPoint x="656" y="610" as="targetPoint" />
            <Array as="points">
              <mxPoint x="716" y="469" />
            </Array>
          </mxGeometry>
        </mxCell>
        <mxCell id="UXiXMVXPrnE1XKQEaYbI-72" value="세부 게임 설정,&lt;br&gt;UI 제공" style="edgeLabel;html=1;align=center;verticalAlign=middle;resizable=0;points=[];fontSize=12;fontFamily=Helvetica;fontColor=default;" parent="UXiXMVXPrnE1XKQEaYbI-71" vertex="1" connectable="0">
          <mxGeometry x="-0.5445" relative="1" as="geometry">
            <mxPoint x="-150" y="91" as="offset" />
          </mxGeometry>
        </mxCell>
        <mxCell id="UXiXMVXPrnE1XKQEaYbI-78" style="edgeStyle=orthogonalEdgeStyle;shape=connector;rounded=0;orthogonalLoop=1;jettySize=auto;html=1;entryX=0;entryY=0.5;entryDx=0;entryDy=0;labelBackgroundColor=default;strokeColor=default;strokeWidth=3;fontFamily=Helvetica;fontSize=12;fontColor=default;endArrow=classic;" parent="1" edge="1">
          <mxGeometry relative="1" as="geometry">
            <mxPoint x="236" y="571" as="sourcePoint" />
            <mxPoint x="346" y="571" as="targetPoint" />
          </mxGeometry>
        </mxCell>
        <mxCell id="UXiXMVXPrnE1XKQEaYbI-79" value="하트 반영,&lt;br&gt;심폐소생술&lt;br&gt;UI" style="edgeLabel;html=1;align=center;verticalAlign=middle;resizable=0;points=[];fontSize=12;fontFamily=Helvetica;fontColor=default;" parent="UXiXMVXPrnE1XKQEaYbI-78" vertex="1" connectable="0">
          <mxGeometry x="-0.3221" y="-2" relative="1" as="geometry">
            <mxPoint x="13" y="-13" as="offset" />
          </mxGeometry>
        </mxCell>
        <mxCell id="jT0nRK7uOziC8OcOM3u5-14" style="edgeStyle=orthogonalEdgeStyle;shape=connector;rounded=0;orthogonalLoop=1;jettySize=auto;html=1;exitX=0.5;exitY=1;exitDx=0;exitDy=0;labelBackgroundColor=default;strokeColor=#82b366;strokeWidth=3;fontFamily=Helvetica;fontSize=12;fontColor=default;endArrow=classic;entryX=0;entryY=0;entryDx=0;entryDy=0;fillColor=#d5e8d4;" parent="1" source="jT0nRK7uOziC8OcOM3u5-11" target="jT0nRK7uOziC8OcOM3u5-19" edge="1">
          <mxGeometry relative="1" as="geometry">
            <mxPoint x="161" y="800" as="targetPoint" />
          </mxGeometry>
        </mxCell>
        <mxCell id="jT0nRK7uOziC8OcOM3u5-17" value="Yes" style="edgeLabel;html=1;align=center;verticalAlign=middle;resizable=0;points=[];fontSize=12;fontFamily=Helvetica;fontColor=default;" parent="jT0nRK7uOziC8OcOM3u5-14" vertex="1" connectable="0">
          <mxGeometry x="-0.6825" y="1" relative="1" as="geometry">
            <mxPoint x="-2" y="9" as="offset" />
          </mxGeometry>
        </mxCell>
        <mxCell id="jT0nRK7uOziC8OcOM3u5-20" value="플레이 데이터 저장" style="edgeLabel;html=1;align=center;verticalAlign=middle;resizable=0;points=[];fontSize=12;fontFamily=Helvetica;fontColor=default;" parent="jT0nRK7uOziC8OcOM3u5-14" vertex="1" connectable="0">
          <mxGeometry x="0.1265" relative="1" as="geometry">
            <mxPoint as="offset" />
          </mxGeometry>
        </mxCell>
        <mxCell id="jT0nRK7uOziC8OcOM3u5-15" style="edgeStyle=orthogonalEdgeStyle;shape=connector;rounded=0;orthogonalLoop=1;jettySize=auto;html=1;exitX=0;exitY=1;exitDx=0;exitDy=0;entryX=0.5;entryY=0;entryDx=0;entryDy=0;labelBackgroundColor=default;strokeColor=default;strokeWidth=3;fontFamily=Helvetica;fontSize=12;fontColor=default;endArrow=classic;" parent="1" source="UXiXMVXPrnE1XKQEaYbI-73" target="jT0nRK7uOziC8OcOM3u5-11" edge="1">
          <mxGeometry relative="1" as="geometry" />
        </mxCell>
        <mxCell id="jT0nRK7uOziC8OcOM3u5-38" style="edgeStyle=orthogonalEdgeStyle;shape=connector;rounded=0;orthogonalLoop=1;jettySize=auto;html=1;exitX=0.5;exitY=1;exitDx=0;exitDy=0;entryX=0;entryY=0.75;entryDx=0;entryDy=0;labelBackgroundColor=default;strokeColor=default;strokeWidth=3;fontFamily=Helvetica;fontSize=12;fontColor=default;endArrow=classic;" parent="1" source="UXiXMVXPrnE1XKQEaYbI-73" target="jT0nRK7uOziC8OcOM3u5-5" edge="1">
          <mxGeometry relative="1" as="geometry" />
        </mxCell>
        <mxCell id="jT0nRK7uOziC8OcOM3u5-39" value="흉부압박 UI" style="edgeLabel;html=1;align=center;verticalAlign=middle;resizable=0;points=[];fontSize=12;fontFamily=Helvetica;fontColor=default;" parent="jT0nRK7uOziC8OcOM3u5-38" vertex="1" connectable="0">
          <mxGeometry x="0.1162" y="-1" relative="1" as="geometry">
            <mxPoint x="40" as="offset" />
          </mxGeometry>
        </mxCell>
        <mxCell id="UXiXMVXPrnE1XKQEaYbI-73" value="&amp;nbsp; &amp;nbsp; &amp;nbsp; &amp;nbsp; &amp;nbsp;판정 기준, 판정에 따른 UI" style="html=1;dashed=0;whiteSpace=wrap;shape=mxgraph.dfd.dataStoreID;align=center;spacingLeft=3;points=[[0,0],[0.5,0],[1,0],[0,0.5],[1,0.5],[0,1],[0.5,1],[1,1]];rounded=0;strokeColor=default;strokeWidth=5;fontFamily=Helvetica;fontSize=12;fontColor=default;fillColor=none;" parent="1" vertex="1">
          <mxGeometry x="86" y="560" width="150" height="50" as="geometry" />
        </mxCell>
        <mxCell id="jT0nRK7uOziC8OcOM3u5-2" style="edgeStyle=orthogonalEdgeStyle;shape=connector;rounded=0;orthogonalLoop=1;jettySize=auto;html=1;exitX=0;exitY=0.75;exitDx=0;exitDy=0;entryX=1;entryY=1;entryDx=0;entryDy=0;labelBackgroundColor=default;strokeColor=default;strokeWidth=3;fontFamily=Helvetica;fontSize=12;fontColor=default;endArrow=classic;" parent="1" edge="1">
          <mxGeometry relative="1" as="geometry">
            <mxPoint x="346" y="591.5" as="sourcePoint" />
            <mxPoint x="235.9999999999999" y="594" as="targetPoint" />
            <Array as="points">
              <mxPoint x="346" y="594" />
            </Array>
          </mxGeometry>
        </mxCell>
        <mxCell id="jT0nRK7uOziC8OcOM3u5-3" value="플레이 데이터" style="edgeLabel;html=1;align=center;verticalAlign=middle;resizable=0;points=[];fontSize=12;fontFamily=Helvetica;fontColor=default;" parent="jT0nRK7uOziC8OcOM3u5-2" vertex="1" connectable="0">
          <mxGeometry x="0.1579" y="1" relative="1" as="geometry">
            <mxPoint x="12" as="offset" />
          </mxGeometry>
        </mxCell>
        <mxCell id="jT0nRK7uOziC8OcOM3u5-40" style="edgeStyle=orthogonalEdgeStyle;shape=connector;rounded=0;orthogonalLoop=1;jettySize=auto;html=1;exitX=0.5;exitY=1;exitDx=0;exitDy=0;entryX=0.5;entryY=0;entryDx=0;entryDy=0;labelBackgroundColor=default;strokeColor=default;strokeWidth=3;fontFamily=Helvetica;fontSize=12;fontColor=default;endArrow=classic;" parent="1" source="UXiXMVXPrnE1XKQEaYbI-76" target="jT0nRK7uOziC8OcOM3u5-5" edge="1">
          <mxGeometry relative="1" as="geometry" />
        </mxCell>
        <mxCell id="2a-4Us2fa9Qr16Q9Qvye-9" value="심폐소생술 플레이 시간 끝" style="edgeLabel;html=1;align=center;verticalAlign=middle;resizable=0;points=[];fontSize=12;fontFamily=Helvetica;fontColor=default;" parent="jT0nRK7uOziC8OcOM3u5-40" vertex="1" connectable="0">
          <mxGeometry x="-0.1462" y="-2" relative="1" as="geometry">
            <mxPoint as="offset" />
          </mxGeometry>
        </mxCell>
        <mxCell id="UXiXMVXPrnE1XKQEaYbI-76" value="&lt;font color=&quot;#00cc00&quot;&gt;CH04-P02&lt;/font&gt;&lt;br&gt;FaT 플레이 2.&lt;br&gt;심폐소생술" style="shape=process;whiteSpace=wrap;html=1;backgroundOutline=1;rounded=0;strokeColor=default;strokeWidth=5;fontFamily=Helvetica;fontSize=12;fontColor=default;fillColor=none;" parent="1" vertex="1">
          <mxGeometry x="346" y="550" width="120" height="50" as="geometry" />
        </mxCell>
        <mxCell id="UXiXMVXPrnE1XKQEaYbI-80" value="연령층, 스테이지, 난이도 별 정보" style="text;html=1;strokeColor=none;fillColor=none;align=center;verticalAlign=middle;whiteSpace=wrap;rounded=0;fontSize=12;fontFamily=Helvetica;fontColor=default;" parent="1" vertex="1">
          <mxGeometry x="632" y="249.5" width="140" height="30" as="geometry" />
        </mxCell>
        <mxCell id="jT0nRK7uOziC8OcOM3u5-7" style="edgeStyle=orthogonalEdgeStyle;shape=connector;rounded=0;orthogonalLoop=1;jettySize=auto;html=1;exitX=0;exitY=0.25;exitDx=0;exitDy=0;entryX=0.629;entryY=1.047;entryDx=0;entryDy=0;labelBackgroundColor=default;strokeColor=default;strokeWidth=3;fontFamily=Helvetica;fontSize=12;fontColor=default;endArrow=classic;entryPerimeter=0;" parent="1" source="jT0nRK7uOziC8OcOM3u5-5" target="UXiXMVXPrnE1XKQEaYbI-73" edge="1">
          <mxGeometry relative="1" as="geometry" />
        </mxCell>
        <mxCell id="jT0nRK7uOziC8OcOM3u5-8" value="플레이 데이터" style="edgeLabel;html=1;align=center;verticalAlign=middle;resizable=0;points=[];fontSize=12;fontFamily=Helvetica;fontColor=default;" parent="jT0nRK7uOziC8OcOM3u5-7" vertex="1" connectable="0">
          <mxGeometry x="-0.158" relative="1" as="geometry">
            <mxPoint x="15" as="offset" />
          </mxGeometry>
        </mxCell>
        <mxCell id="jT0nRK7uOziC8OcOM3u5-18" style="edgeStyle=orthogonalEdgeStyle;shape=connector;rounded=0;orthogonalLoop=1;jettySize=auto;html=1;exitX=0.5;exitY=1;exitDx=0;exitDy=0;entryX=0.5;entryY=0;entryDx=0;entryDy=0;labelBackgroundColor=default;strokeColor=default;strokeWidth=3;fontFamily=Helvetica;fontSize=12;fontColor=default;endArrow=classic;" parent="1" source="jT0nRK7uOziC8OcOM3u5-5" target="jT0nRK7uOziC8OcOM3u5-16" edge="1">
          <mxGeometry relative="1" as="geometry" />
        </mxCell>
        <mxCell id="jT0nRK7uOziC8OcOM3u5-5" value="&lt;font color=&quot;#00cc00&quot;&gt;CH04-P03&lt;/font&gt;&lt;br&gt;FaT 플레이 3.&lt;br&gt;흉부압박" style="shape=process;whiteSpace=wrap;html=1;backgroundOutline=1;rounded=0;strokeColor=default;strokeWidth=5;fontFamily=Helvetica;fontSize=12;fontColor=default;fillColor=none;" parent="1" vertex="1">
          <mxGeometry x="346" y="660" width="120" height="50" as="geometry" />
        </mxCell>
        <mxCell id="jT0nRK7uOziC8OcOM3u5-12" style="edgeStyle=orthogonalEdgeStyle;shape=connector;rounded=0;orthogonalLoop=1;jettySize=auto;html=1;entryX=1;entryY=0.5;entryDx=0;entryDy=0;labelBackgroundColor=default;strokeColor=#b85450;strokeWidth=3;fontFamily=Helvetica;fontSize=12;fontColor=default;endArrow=classic;fillColor=#f8cecc;" parent="1" source="jT0nRK7uOziC8OcOM3u5-11" target="UXiXMVXPrnE1XKQEaYbI-76" edge="1">
          <mxGeometry relative="1" as="geometry">
            <Array as="points">
              <mxPoint x="536" y="735" />
              <mxPoint x="536" y="575" />
            </Array>
          </mxGeometry>
        </mxCell>
        <mxCell id="jT0nRK7uOziC8OcOM3u5-13" value="NO, 플레이 데이터 저장" style="edgeLabel;html=1;align=center;verticalAlign=middle;resizable=0;points=[];fontSize=12;fontFamily=Helvetica;fontColor=default;" parent="jT0nRK7uOziC8OcOM3u5-12" vertex="1" connectable="0">
          <mxGeometry x="-0.8066" y="-2" relative="1" as="geometry">
            <mxPoint x="23" y="-2" as="offset" />
          </mxGeometry>
        </mxCell>
        <mxCell id="jT0nRK7uOziC8OcOM3u5-37" value="하트 반영, 심폐소생술 UI" style="edgeLabel;html=1;align=center;verticalAlign=middle;resizable=0;points=[];fontSize=12;fontFamily=Helvetica;fontColor=default;" parent="jT0nRK7uOziC8OcOM3u5-12" vertex="1" connectable="0">
          <mxGeometry x="0.6677" relative="1" as="geometry">
            <mxPoint y="30" as="offset" />
          </mxGeometry>
        </mxCell>
        <mxCell id="jT0nRK7uOziC8OcOM3u5-11" value="&lt;font style=&quot;font-size: 11px;&quot;&gt;하트가 10개&lt;br&gt;혹은 0개&lt;br&gt;인가?&lt;/font&gt;" style="rhombus;whiteSpace=wrap;html=1;rounded=0;strokeColor=default;strokeWidth=3;fontFamily=Helvetica;fontSize=12;fontColor=default;fillColor=none;" parent="1" vertex="1">
          <mxGeometry x="41" y="690" width="90" height="90" as="geometry" />
        </mxCell>
        <mxCell id="jT0nRK7uOziC8OcOM3u5-28" style="edgeStyle=orthogonalEdgeStyle;shape=connector;rounded=0;orthogonalLoop=1;jettySize=auto;html=1;exitX=0.5;exitY=1;exitDx=0;exitDy=0;entryX=0.5;entryY=0;entryDx=0;entryDy=0;labelBackgroundColor=default;strokeColor=default;strokeWidth=3;fontFamily=Helvetica;fontSize=12;fontColor=default;endArrow=classic;" parent="1" source="jT0nRK7uOziC8OcOM3u5-16" target="jT0nRK7uOziC8OcOM3u5-27" edge="1">
          <mxGeometry relative="1" as="geometry" />
        </mxCell>
        <mxCell id="jT0nRK7uOziC8OcOM3u5-16" value="&lt;font color=&quot;#00cc00&quot;&gt;CH05-pEnd&lt;/font&gt;&lt;br&gt;게임 종료" style="shape=process;whiteSpace=wrap;html=1;backgroundOutline=1;rounded=0;strokeColor=default;strokeWidth=5;fontFamily=Helvetica;fontSize=12;fontColor=default;fillColor=none;" parent="1" vertex="1">
          <mxGeometry x="346" y="780" width="120" height="50" as="geometry" />
        </mxCell>
        <mxCell id="jT0nRK7uOziC8OcOM3u5-21" style="edgeStyle=orthogonalEdgeStyle;shape=connector;rounded=0;orthogonalLoop=1;jettySize=auto;html=1;exitX=1;exitY=0.5;exitDx=0;exitDy=0;entryX=0;entryY=0.5;entryDx=0;entryDy=0;labelBackgroundColor=default;strokeColor=default;strokeWidth=3;fontFamily=Helvetica;fontSize=12;fontColor=default;endArrow=classic;" parent="1" source="jT0nRK7uOziC8OcOM3u5-19" target="jT0nRK7uOziC8OcOM3u5-16" edge="1">
          <mxGeometry relative="1" as="geometry" />
        </mxCell>
        <mxCell id="jT0nRK7uOziC8OcOM3u5-22" value="종료 UI&lt;br&gt;(판정 데이터 누적 값 UI)" style="edgeLabel;html=1;align=center;verticalAlign=middle;resizable=0;points=[];fontSize=12;fontFamily=Helvetica;fontColor=default;" parent="jT0nRK7uOziC8OcOM3u5-21" vertex="1" connectable="0">
          <mxGeometry x="-0.0642" y="2" relative="1" as="geometry">
            <mxPoint x="-13" y="-16" as="offset" />
          </mxGeometry>
        </mxCell>
        <mxCell id="jT0nRK7uOziC8OcOM3u5-19" value="&amp;nbsp; &amp;nbsp; &amp;nbsp; &amp;nbsp; &amp;nbsp;플레이 데이터(로그)" style="html=1;dashed=0;whiteSpace=wrap;shape=mxgraph.dfd.dataStoreID;align=left;spacingLeft=3;points=[[0,0],[0.5,0],[1,0],[0,0.5],[1,0.5],[0,1],[0.5,1],[1,1]];rounded=0;strokeColor=default;strokeWidth=5;fontFamily=Helvetica;fontSize=12;fontColor=default;fillColor=none;" parent="1" vertex="1">
          <mxGeometry x="86" y="850" width="150" height="50" as="geometry" />
        </mxCell>
        <mxCell id="jT0nRK7uOziC8OcOM3u5-31" style="edgeStyle=orthogonalEdgeStyle;shape=connector;rounded=0;orthogonalLoop=1;jettySize=auto;html=1;exitX=1;exitY=0.5;exitDx=0;exitDy=0;labelBackgroundColor=default;strokeColor=#82b366;strokeWidth=3;fontFamily=Helvetica;fontSize=12;fontColor=default;endArrow=classic;entryX=0.5;entryY=0;entryDx=0;entryDy=0;fillColor=#d5e8d4;" parent="1" source="jT0nRK7uOziC8OcOM3u5-27" target="UXiXMVXPrnE1XKQEaYbI-53" edge="1">
          <mxGeometry relative="1" as="geometry">
            <mxPoint x="656" y="870" as="targetPoint" />
            <Array as="points">
              <mxPoint x="786" y="935" />
              <mxPoint x="786" y="100" />
              <mxPoint x="406" y="100" />
            </Array>
          </mxGeometry>
        </mxCell>
        <mxCell id="jT0nRK7uOziC8OcOM3u5-32" value="Yes" style="edgeLabel;html=1;align=center;verticalAlign=middle;resizable=0;points=[];fontSize=12;fontFamily=Helvetica;fontColor=default;" parent="jT0nRK7uOziC8OcOM3u5-31" vertex="1" connectable="0">
          <mxGeometry x="-0.2666" y="-2" relative="1" as="geometry">
            <mxPoint x="-222" y="250" as="offset" />
          </mxGeometry>
        </mxCell>
        <mxCell id="jT0nRK7uOziC8OcOM3u5-33" style="edgeStyle=orthogonalEdgeStyle;shape=connector;rounded=0;orthogonalLoop=1;jettySize=auto;html=1;exitX=0.5;exitY=1;exitDx=0;exitDy=0;labelBackgroundColor=default;strokeColor=#b85450;strokeWidth=3;fontFamily=Helvetica;fontSize=12;fontColor=default;endArrow=classic;fillColor=#f8cecc;entryX=0.5;entryY=0;entryDx=0;entryDy=0;" parent="1" source="jT0nRK7uOziC8OcOM3u5-27" target="jT0nRK7uOziC8OcOM3u5-34" edge="1">
          <mxGeometry relative="1" as="geometry">
            <mxPoint x="405.9354838709678" y="1020" as="targetPoint" />
          </mxGeometry>
        </mxCell>
        <mxCell id="jT0nRK7uOziC8OcOM3u5-35" value="NO" style="edgeLabel;html=1;align=center;verticalAlign=middle;resizable=0;points=[];fontSize=12;fontFamily=Helvetica;fontColor=default;" parent="jT0nRK7uOziC8OcOM3u5-33" vertex="1" connectable="0">
          <mxGeometry x="-0.1785" y="2" relative="1" as="geometry">
            <mxPoint x="-2" as="offset" />
          </mxGeometry>
        </mxCell>
        <mxCell id="jT0nRK7uOziC8OcOM3u5-27" value="&lt;span style=&quot;font-size: 11px;&quot;&gt;사용자가&lt;br&gt;리플레이를&lt;br&gt;원하는가?&lt;br&gt;&lt;/span&gt;" style="rhombus;whiteSpace=wrap;html=1;rounded=0;strokeColor=default;strokeWidth=3;fontFamily=Helvetica;fontSize=12;fontColor=default;fillColor=none;" parent="1" vertex="1">
          <mxGeometry x="361" y="890" width="90" height="90" as="geometry" />
        </mxCell>
        <mxCell id="jT0nRK7uOziC8OcOM3u5-34" value="종료" style="ellipse;shape=doubleEllipse;html=1;dashed=0;whiteSpace=wrap;aspect=fixed;rounded=0;strokeColor=default;strokeWidth=5;fontFamily=Helvetica;fontSize=12;fontColor=default;fillColor=none;" parent="1" vertex="1">
          <mxGeometry x="381" y="1040" width="50" height="50" as="geometry" />
        </mxCell>
      </root>
    </mxGraphModel>
  </diagram>
  <diagram id="TEJvcwvSQrM8zdeaolh3" name="DataFlowChart_v.1.0.1(level 2_CH01~04)">
    <mxGraphModel dx="1026" dy="604" grid="1" gridSize="10" guides="1" tooltips="1" connect="1" arrows="1" fold="1" page="1" pageScale="1" pageWidth="827" pageHeight="1169" math="0" shadow="0">
      <root>
        <mxCell id="0" />
        <mxCell id="1" parent="0" />
        <mxCell id="msDLo6iu01Qnxue_6RTU-3" style="edgeStyle=orthogonalEdgeStyle;shape=connector;rounded=0;orthogonalLoop=1;jettySize=auto;html=1;entryX=0;entryY=0.5;entryDx=0;entryDy=0;labelBackgroundColor=default;strokeColor=default;strokeWidth=3;fontFamily=Helvetica;fontSize=12;fontColor=default;endArrow=classic;exitX=0.25;exitY=0;exitDx=0;exitDy=0;" parent="1" source="sKtcUCVqXiFIOjBCG5N--3" target="msDLo6iu01Qnxue_6RTU-2" edge="1">
          <mxGeometry relative="1" as="geometry">
            <mxPoint x="120" y="70" as="sourcePoint" />
          </mxGeometry>
        </mxCell>
        <mxCell id="msDLo6iu01Qnxue_6RTU-4" value="시작 UI 요청" style="edgeLabel;html=1;align=center;verticalAlign=middle;resizable=0;points=[];fontSize=12;fontFamily=Helvetica;fontColor=default;" parent="msDLo6iu01Qnxue_6RTU-3" vertex="1" connectable="0">
          <mxGeometry x="-0.0616" relative="1" as="geometry">
            <mxPoint x="120" y="-2" as="offset" />
          </mxGeometry>
        </mxCell>
        <mxCell id="msDLo6iu01Qnxue_6RTU-7" style="edgeStyle=orthogonalEdgeStyle;shape=connector;rounded=0;orthogonalLoop=1;jettySize=auto;html=1;exitX=0.75;exitY=0;exitDx=0;exitDy=0;entryX=0;entryY=0.5;entryDx=0;entryDy=0;labelBackgroundColor=default;strokeColor=default;strokeWidth=3;fontFamily=Helvetica;fontSize=12;fontColor=default;endArrow=classic;" parent="1" source="sKtcUCVqXiFIOjBCG5N--3" target="sKtcUCVqXiFIOjBCG5N--9" edge="1">
          <mxGeometry relative="1" as="geometry" />
        </mxCell>
        <mxCell id="msDLo6iu01Qnxue_6RTU-8" value="플레이 연령층 선택" style="edgeLabel;html=1;align=center;verticalAlign=middle;resizable=0;points=[];fontSize=12;fontFamily=Helvetica;fontColor=default;" parent="msDLo6iu01Qnxue_6RTU-7" vertex="1" connectable="0">
          <mxGeometry x="-0.1722" y="-2" relative="1" as="geometry">
            <mxPoint x="95" y="-2" as="offset" />
          </mxGeometry>
        </mxCell>
        <mxCell id="lqgTt73xtb88ifHr1dGc-7" style="edgeStyle=orthogonalEdgeStyle;shape=connector;rounded=0;orthogonalLoop=1;jettySize=auto;html=1;exitX=1;exitY=0.25;exitDx=0;exitDy=0;entryX=0;entryY=0.25;entryDx=0;entryDy=0;labelBackgroundColor=default;strokeColor=default;strokeWidth=3;fontFamily=Helvetica;fontSize=12;fontColor=default;endArrow=none;startArrow=classic;startFill=1;endFill=0;" parent="1" source="sKtcUCVqXiFIOjBCG5N--3" target="sKtcUCVqXiFIOjBCG5N--14" edge="1">
          <mxGeometry relative="1" as="geometry" />
        </mxCell>
        <mxCell id="lqgTt73xtb88ifHr1dGc-9" value="스테이지 선택 UI 제공" style="edgeLabel;html=1;align=center;verticalAlign=middle;resizable=0;points=[];fontSize=12;fontFamily=Helvetica;fontColor=default;" parent="lqgTt73xtb88ifHr1dGc-7" vertex="1" connectable="0">
          <mxGeometry x="-0.3" y="-2" relative="1" as="geometry">
            <mxPoint x="30" y="-2" as="offset" />
          </mxGeometry>
        </mxCell>
        <mxCell id="C5HRvm2PwkVHPC0ECW50-6" style="edgeStyle=orthogonalEdgeStyle;shape=connector;rounded=0;orthogonalLoop=1;jettySize=auto;html=1;exitX=0.607;exitY=1;exitDx=0;exitDy=0;entryX=0;entryY=0.5;entryDx=0;entryDy=0;labelBackgroundColor=default;strokeColor=default;strokeWidth=3;fontFamily=Helvetica;fontSize=12;fontColor=default;endArrow=classic;exitPerimeter=0;" parent="1" source="sKtcUCVqXiFIOjBCG5N--3" target="sKtcUCVqXiFIOjBCG5N--18" edge="1">
          <mxGeometry relative="1" as="geometry" />
        </mxCell>
        <mxCell id="C5HRvm2PwkVHPC0ECW50-7" value="플레이할 난이도 선택" style="edgeLabel;html=1;align=center;verticalAlign=middle;resizable=0;points=[];fontSize=12;fontFamily=Helvetica;fontColor=default;" parent="C5HRvm2PwkVHPC0ECW50-6" vertex="1" connectable="0">
          <mxGeometry x="0.1687" y="2" relative="1" as="geometry">
            <mxPoint x="29" y="2" as="offset" />
          </mxGeometry>
        </mxCell>
        <mxCell id="C5HRvm2PwkVHPC0ECW50-10" style="edgeStyle=orthogonalEdgeStyle;shape=connector;rounded=0;orthogonalLoop=1;jettySize=auto;html=1;exitX=0.25;exitY=1;exitDx=0;exitDy=0;entryX=0;entryY=0.75;entryDx=0;entryDy=0;labelBackgroundColor=default;strokeColor=default;strokeWidth=3;fontFamily=Helvetica;fontSize=12;fontColor=default;endArrow=classic;" parent="1" source="sKtcUCVqXiFIOjBCG5N--3" target="9ptM2fobtE_dvvtiio05-1" edge="1">
          <mxGeometry relative="1" as="geometry" />
        </mxCell>
        <mxCell id="C5HRvm2PwkVHPC0ECW50-12" value="게임 플레이" style="edgeLabel;html=1;align=center;verticalAlign=middle;resizable=0;points=[];fontSize=12;fontFamily=Helvetica;fontColor=default;" parent="C5HRvm2PwkVHPC0ECW50-10" vertex="1" connectable="0">
          <mxGeometry x="0.2807" relative="1" as="geometry">
            <mxPoint x="34" y="2" as="offset" />
          </mxGeometry>
        </mxCell>
        <mxCell id="sKtcUCVqXiFIOjBCG5N--3" value="&lt;font style=&quot;font-size: 12px;&quot;&gt;모바일 디바이스&lt;/font&gt;" style="rounded=0;whiteSpace=wrap;html=1;fillColor=#ffe6cc;strokeWidth=5;strokeColor=#d79b00;" parent="1" vertex="1">
          <mxGeometry x="20" y="240" width="100" height="50" as="geometry" />
        </mxCell>
        <mxCell id="msDLo6iu01Qnxue_6RTU-10" style="edgeStyle=orthogonalEdgeStyle;shape=connector;rounded=0;orthogonalLoop=1;jettySize=auto;html=1;exitX=0;exitY=0.5;exitDx=0;exitDy=0;entryX=1;entryY=0.25;entryDx=0;entryDy=0;labelBackgroundColor=default;strokeColor=default;strokeWidth=3;fontFamily=Helvetica;fontSize=12;fontColor=default;endArrow=classic;" parent="1" edge="1">
          <mxGeometry relative="1" as="geometry">
            <mxPoint x="570" y="246.5" as="sourcePoint" />
            <mxPoint x="440" y="246.5" as="targetPoint" />
          </mxGeometry>
        </mxCell>
        <mxCell id="msDLo6iu01Qnxue_6RTU-11" value="스테이지 선택 UI&amp;nbsp; 반환" style="edgeLabel;html=1;align=center;verticalAlign=middle;resizable=0;points=[];fontSize=12;fontFamily=Helvetica;fontColor=default;" parent="msDLo6iu01Qnxue_6RTU-10" vertex="1" connectable="0">
          <mxGeometry x="0.2036" y="-3" relative="1" as="geometry">
            <mxPoint x="18" y="2" as="offset" />
          </mxGeometry>
        </mxCell>
        <mxCell id="sKtcUCVqXiFIOjBCG5N--4" value="" style="html=1;dashed=0;whiteSpace=wrap;shape=mxgraph.dfd.dataStoreID;align=left;spacingLeft=3;points=[[0,0],[0.5,0],[1,0],[0,0.5],[1,0.5],[0,1],[0.5,1],[1,1]];rounded=0;strokeColor=default;strokeWidth=5;fontFamily=Helvetica;fontSize=12;fontColor=default;fillColor=none;" parent="1" vertex="1">
          <mxGeometry x="570" y="235" width="180" height="35" as="geometry" />
        </mxCell>
        <mxCell id="sKtcUCVqXiFIOjBCG5N--5" value="" style="edgeStyle=orthogonalEdgeStyle;shape=connector;rounded=0;orthogonalLoop=1;jettySize=auto;html=1;labelBackgroundColor=default;strokeColor=default;strokeWidth=3;fontFamily=Helvetica;fontSize=12;fontColor=default;endArrow=classic;" parent="1" source="sKtcUCVqXiFIOjBCG5N--9" target="sKtcUCVqXiFIOjBCG5N--14" edge="1">
          <mxGeometry relative="1" as="geometry" />
        </mxCell>
        <mxCell id="sKtcUCVqXiFIOjBCG5N--7" style="edgeStyle=orthogonalEdgeStyle;shape=connector;rounded=0;orthogonalLoop=1;jettySize=auto;html=1;entryX=0.5;entryY=0;entryDx=0;entryDy=0;labelBackgroundColor=default;strokeColor=default;strokeWidth=3;fontFamily=Helvetica;fontSize=12;fontColor=default;endArrow=classic;exitX=1;exitY=0.5;exitDx=0;exitDy=0;" parent="1" source="sKtcUCVqXiFIOjBCG5N--9" target="sKtcUCVqXiFIOjBCG5N--4" edge="1">
          <mxGeometry relative="1" as="geometry">
            <Array as="points">
              <mxPoint x="660" y="150" />
            </Array>
          </mxGeometry>
        </mxCell>
        <mxCell id="sKtcUCVqXiFIOjBCG5N--8" value="&lt;font style=&quot;font-size: 13px;&quot;&gt;연령층 선택 값 저장&lt;/font&gt;" style="edgeLabel;html=1;align=center;verticalAlign=middle;resizable=0;points=[];fontSize=12;fontFamily=Helvetica;fontColor=default;" parent="sKtcUCVqXiFIOjBCG5N--7" vertex="1" connectable="0">
          <mxGeometry x="-0.5701" relative="1" as="geometry">
            <mxPoint x="37" as="offset" />
          </mxGeometry>
        </mxCell>
        <mxCell id="lqgTt73xtb88ifHr1dGc-10" style="edgeStyle=orthogonalEdgeStyle;shape=connector;rounded=0;orthogonalLoop=1;jettySize=auto;html=1;exitX=0;exitY=0.25;exitDx=0;exitDy=0;entryX=0.658;entryY=0.013;entryDx=0;entryDy=0;entryPerimeter=0;labelBackgroundColor=default;strokeColor=default;strokeWidth=3;fontFamily=Helvetica;fontSize=12;fontColor=default;endArrow=classic;" parent="1" source="sKtcUCVqXiFIOjBCG5N--9" target="sKtcUCVqXiFIOjBCG5N--3" edge="1">
          <mxGeometry relative="1" as="geometry" />
        </mxCell>
        <mxCell id="lqgTt73xtb88ifHr1dGc-11" value="연령층 선택 UI 제공" style="edgeLabel;html=1;align=center;verticalAlign=middle;resizable=0;points=[];fontSize=12;fontFamily=Helvetica;fontColor=default;" parent="lqgTt73xtb88ifHr1dGc-10" vertex="1" connectable="0">
          <mxGeometry x="0.2797" y="2" relative="1" as="geometry">
            <mxPoint x="26" as="offset" />
          </mxGeometry>
        </mxCell>
        <mxCell id="sKtcUCVqXiFIOjBCG5N--9" value="&lt;font color=&quot;#00cc00&quot;&gt;CH01&lt;/font&gt;&lt;br&gt;연령층 선택" style="shape=process;whiteSpace=wrap;html=1;backgroundOutline=1;rounded=0;strokeColor=default;strokeWidth=5;fontFamily=Helvetica;fontSize=12;fontColor=default;fillColor=none;" parent="1" vertex="1">
          <mxGeometry x="320" y="125" width="120" height="50" as="geometry" />
        </mxCell>
        <mxCell id="sKtcUCVqXiFIOjBCG5N--10" value="" style="edgeStyle=orthogonalEdgeStyle;shape=connector;rounded=0;orthogonalLoop=1;jettySize=auto;html=1;labelBackgroundColor=default;strokeColor=default;strokeWidth=3;fontFamily=Helvetica;fontSize=12;fontColor=default;endArrow=classic;" parent="1" source="sKtcUCVqXiFIOjBCG5N--14" target="sKtcUCVqXiFIOjBCG5N--18" edge="1">
          <mxGeometry relative="1" as="geometry" />
        </mxCell>
        <mxCell id="msDLo6iu01Qnxue_6RTU-14" style="edgeStyle=orthogonalEdgeStyle;shape=connector;rounded=0;orthogonalLoop=1;jettySize=auto;html=1;exitX=1;exitY=0.5;exitDx=0;exitDy=0;entryX=0.01;entryY=0.859;entryDx=0;entryDy=0;entryPerimeter=0;labelBackgroundColor=default;strokeColor=default;strokeWidth=3;fontFamily=Helvetica;fontSize=12;fontColor=default;endArrow=classic;" parent="1" source="sKtcUCVqXiFIOjBCG5N--14" target="sKtcUCVqXiFIOjBCG5N--4" edge="1">
          <mxGeometry relative="1" as="geometry" />
        </mxCell>
        <mxCell id="msDLo6iu01Qnxue_6RTU-15" value="스테이지 선택 값 저장" style="edgeLabel;html=1;align=center;verticalAlign=middle;resizable=0;points=[];fontSize=12;fontFamily=Helvetica;fontColor=default;" parent="msDLo6iu01Qnxue_6RTU-14" vertex="1" connectable="0">
          <mxGeometry x="-0.3432" y="-2" relative="1" as="geometry">
            <mxPoint x="16" as="offset" />
          </mxGeometry>
        </mxCell>
        <mxCell id="C5HRvm2PwkVHPC0ECW50-2" style="edgeStyle=orthogonalEdgeStyle;shape=connector;rounded=0;orthogonalLoop=1;jettySize=auto;html=1;exitX=0;exitY=0.75;exitDx=0;exitDy=0;entryX=1;entryY=0.75;entryDx=0;entryDy=0;labelBackgroundColor=default;strokeColor=default;strokeWidth=3;fontFamily=Helvetica;fontSize=12;fontColor=default;endArrow=none;startArrow=classic;startFill=1;endFill=0;" parent="1" source="sKtcUCVqXiFIOjBCG5N--14" target="sKtcUCVqXiFIOjBCG5N--3" edge="1">
          <mxGeometry relative="1" as="geometry" />
        </mxCell>
        <mxCell id="C5HRvm2PwkVHPC0ECW50-3" value="플레이할 스테이지 선택" style="edgeLabel;html=1;align=center;verticalAlign=middle;resizable=0;points=[];fontSize=12;fontFamily=Helvetica;fontColor=default;" parent="C5HRvm2PwkVHPC0ECW50-2" vertex="1" connectable="0">
          <mxGeometry x="0.3852" y="2" relative="1" as="geometry">
            <mxPoint x="39" as="offset" />
          </mxGeometry>
        </mxCell>
        <mxCell id="sKtcUCVqXiFIOjBCG5N--14" value="&lt;font color=&quot;#00cc00&quot;&gt;CH02&lt;/font&gt;&lt;br&gt;스테이지 선택" style="shape=process;whiteSpace=wrap;html=1;backgroundOutline=1;rounded=0;strokeColor=default;strokeWidth=5;fontFamily=Helvetica;fontSize=12;fontColor=default;fillColor=none;" parent="1" vertex="1">
          <mxGeometry x="320" y="240" width="120" height="50" as="geometry" />
        </mxCell>
        <mxCell id="sKtcUCVqXiFIOjBCG5N--15" style="edgeStyle=orthogonalEdgeStyle;shape=connector;rounded=0;orthogonalLoop=1;jettySize=auto;html=1;exitX=1;exitY=0.75;exitDx=0;exitDy=0;entryX=0.5;entryY=1;entryDx=0;entryDy=0;labelBackgroundColor=default;strokeColor=default;strokeWidth=3;fontFamily=Helvetica;fontSize=12;fontColor=default;endArrow=classic;" parent="1" source="sKtcUCVqXiFIOjBCG5N--18" target="sKtcUCVqXiFIOjBCG5N--4" edge="1">
          <mxGeometry relative="1" as="geometry" />
        </mxCell>
        <mxCell id="sKtcUCVqXiFIOjBCG5N--16" value="난이도 선택 값 저장" style="edgeLabel;html=1;align=center;verticalAlign=middle;resizable=0;points=[];fontSize=12;fontFamily=Helvetica;fontColor=default;" parent="sKtcUCVqXiFIOjBCG5N--15" vertex="1" connectable="0">
          <mxGeometry x="-0.5445" relative="1" as="geometry">
            <mxPoint x="16" as="offset" />
          </mxGeometry>
        </mxCell>
        <mxCell id="9ptM2fobtE_dvvtiio05-2" value="" style="edgeStyle=orthogonalEdgeStyle;shape=connector;rounded=0;orthogonalLoop=1;jettySize=auto;html=1;labelBackgroundColor=default;strokeColor=default;strokeWidth=3;fontFamily=Helvetica;fontSize=12;fontColor=default;endArrow=classic;" parent="1" source="sKtcUCVqXiFIOjBCG5N--18" target="9ptM2fobtE_dvvtiio05-1" edge="1">
          <mxGeometry relative="1" as="geometry" />
        </mxCell>
        <mxCell id="C5HRvm2PwkVHPC0ECW50-4" style="edgeStyle=orthogonalEdgeStyle;shape=connector;rounded=0;orthogonalLoop=1;jettySize=auto;html=1;exitX=0;exitY=0.25;exitDx=0;exitDy=0;entryX=0.75;entryY=1;entryDx=0;entryDy=0;labelBackgroundColor=default;strokeColor=default;strokeWidth=3;fontFamily=Helvetica;fontSize=12;fontColor=default;endArrow=classic;" parent="1" source="sKtcUCVqXiFIOjBCG5N--18" target="sKtcUCVqXiFIOjBCG5N--3" edge="1">
          <mxGeometry relative="1" as="geometry" />
        </mxCell>
        <mxCell id="C5HRvm2PwkVHPC0ECW50-5" value="난이도 선택 UI 제공" style="edgeLabel;html=1;align=center;verticalAlign=middle;resizable=0;points=[];fontSize=12;fontFamily=Helvetica;fontColor=default;" parent="C5HRvm2PwkVHPC0ECW50-4" vertex="1" connectable="0">
          <mxGeometry x="-0.1434" y="-2" relative="1" as="geometry">
            <mxPoint x="17" as="offset" />
          </mxGeometry>
        </mxCell>
        <mxCell id="sKtcUCVqXiFIOjBCG5N--18" value="&lt;font color=&quot;#00cc00&quot;&gt;CH03&lt;/font&gt;&lt;br&gt;난이도 선택" style="shape=process;whiteSpace=wrap;html=1;backgroundOutline=1;rounded=0;strokeColor=default;strokeWidth=5;fontFamily=Helvetica;fontSize=12;fontColor=default;fillColor=none;" parent="1" vertex="1">
          <mxGeometry x="320" y="350" width="120" height="50" as="geometry" />
        </mxCell>
        <mxCell id="XXJm8boQB2INkS-OPUiB-1" style="edgeStyle=orthogonalEdgeStyle;shape=connector;rounded=0;orthogonalLoop=1;jettySize=auto;html=1;labelBackgroundColor=default;strokeColor=default;strokeWidth=3;fontFamily=Helvetica;fontSize=12;fontColor=default;endArrow=classic;" parent="1" edge="1">
          <mxGeometry relative="1" as="geometry">
            <mxPoint x="710" y="270" as="sourcePoint" />
            <mxPoint x="710" y="510" as="targetPoint" />
            <Array as="points">
              <mxPoint x="710" y="500" />
            </Array>
          </mxGeometry>
        </mxCell>
        <mxCell id="XXJm8boQB2INkS-OPUiB-13" value="&lt;span style=&quot;background-color: rgb(255, 255, 255);&quot;&gt;사용자가 선택한&lt;br&gt;연령층, 스테이지, 난이도&lt;br&gt;정보 전달&lt;/span&gt;" style="edgeLabel;html=1;align=left;verticalAlign=middle;resizable=0;points=[];fontSize=12;fontFamily=Helvetica;fontColor=default;" parent="XXJm8boQB2INkS-OPUiB-1" vertex="1" connectable="0">
          <mxGeometry x="0.1793" y="-2" relative="1" as="geometry">
            <mxPoint x="-18" y="-12" as="offset" />
          </mxGeometry>
        </mxCell>
        <mxCell id="lqgTt73xtb88ifHr1dGc-12" style="edgeStyle=orthogonalEdgeStyle;shape=connector;rounded=0;orthogonalLoop=1;jettySize=auto;html=1;entryX=1;entryY=0.25;entryDx=0;entryDy=0;labelBackgroundColor=default;strokeColor=default;strokeWidth=3;fontFamily=Helvetica;fontSize=12;fontColor=default;endArrow=classic;" parent="1" target="sKtcUCVqXiFIOjBCG5N--9" edge="1">
          <mxGeometry relative="1" as="geometry">
            <mxPoint x="680" y="230" as="sourcePoint" />
            <Array as="points">
              <mxPoint x="680" y="138" />
            </Array>
          </mxGeometry>
        </mxCell>
        <mxCell id="C5HRvm2PwkVHPC0ECW50-1" value="연령층 선택 UI 반환" style="edgeLabel;html=1;align=center;verticalAlign=middle;resizable=0;points=[];fontSize=12;fontFamily=Helvetica;fontColor=default;" parent="lqgTt73xtb88ifHr1dGc-12" vertex="1" connectable="0">
          <mxGeometry x="0.7583" y="1" relative="1" as="geometry">
            <mxPoint x="170" y="-2" as="offset" />
          </mxGeometry>
        </mxCell>
        <mxCell id="sKtcUCVqXiFIOjBCG5N--19" value="플레이 전 선택값 및&lt;br&gt;선택지 UI 저장소" style="text;html=1;strokeColor=none;fillColor=none;align=center;verticalAlign=middle;whiteSpace=wrap;rounded=0;fontSize=12;fontFamily=Helvetica;fontColor=default;" parent="1" vertex="1">
          <mxGeometry x="606" y="237" width="140" height="30" as="geometry" />
        </mxCell>
        <mxCell id="msDLo6iu01Qnxue_6RTU-5" style="edgeStyle=orthogonalEdgeStyle;shape=connector;rounded=0;orthogonalLoop=1;jettySize=auto;html=1;labelBackgroundColor=default;strokeColor=default;strokeWidth=3;fontFamily=Helvetica;fontSize=12;fontColor=default;endArrow=classic;" parent="1" source="msDLo6iu01Qnxue_6RTU-2" target="sKtcUCVqXiFIOjBCG5N--9" edge="1">
          <mxGeometry relative="1" as="geometry" />
        </mxCell>
        <mxCell id="lqgTt73xtb88ifHr1dGc-5" style="edgeStyle=orthogonalEdgeStyle;shape=connector;rounded=0;orthogonalLoop=1;jettySize=auto;html=1;exitX=0;exitY=1;exitDx=0;exitDy=0;entryX=0.5;entryY=0;entryDx=0;entryDy=0;labelBackgroundColor=default;strokeColor=default;strokeWidth=3;fontFamily=Helvetica;fontSize=12;fontColor=default;endArrow=classic;" parent="1" source="msDLo6iu01Qnxue_6RTU-2" target="sKtcUCVqXiFIOjBCG5N--3" edge="1">
          <mxGeometry relative="1" as="geometry">
            <Array as="points">
              <mxPoint x="70" y="60" />
            </Array>
          </mxGeometry>
        </mxCell>
        <mxCell id="lqgTt73xtb88ifHr1dGc-6" value="시작 UI 제공" style="edgeLabel;html=1;align=center;verticalAlign=middle;resizable=0;points=[];fontSize=12;fontFamily=Helvetica;fontColor=default;" parent="lqgTt73xtb88ifHr1dGc-5" vertex="1" connectable="0">
          <mxGeometry x="-0.2707" relative="1" as="geometry">
            <mxPoint x="26" as="offset" />
          </mxGeometry>
        </mxCell>
        <mxCell id="msDLo6iu01Qnxue_6RTU-2" value="&amp;nbsp; &amp;nbsp; &amp;nbsp; &amp;nbsp; 게임 초기 &lt;br&gt;&amp;nbsp; &amp;nbsp; &amp;nbsp; &amp;nbsp; 로딩 데이터" style="html=1;dashed=0;whiteSpace=wrap;shape=mxgraph.dfd.dataStoreID;align=center;spacingLeft=3;points=[[0,0],[0.5,0],[1,0],[0,0.5],[1,0.5],[0,1],[0.5,1],[1,1]];rounded=0;strokeColor=default;strokeWidth=5;fontFamily=Helvetica;fontSize=12;fontColor=default;fillColor=none;" parent="1" vertex="1">
          <mxGeometry x="320" y="25" width="120" height="35" as="geometry" />
        </mxCell>
        <mxCell id="msDLo6iu01Qnxue_6RTU-16" value="" style="edgeStyle=orthogonalEdgeStyle;shape=connector;rounded=0;orthogonalLoop=1;jettySize=auto;html=1;labelBackgroundColor=default;strokeColor=default;strokeWidth=3;fontFamily=Helvetica;fontSize=12;fontColor=default;endArrow=classic;exitX=0.382;exitY=0.995;exitDx=0;exitDy=0;exitPerimeter=0;entryX=1;entryY=0.25;entryDx=0;entryDy=0;" parent="1" source="sKtcUCVqXiFIOjBCG5N--4" target="sKtcUCVqXiFIOjBCG5N--18" edge="1">
          <mxGeometry relative="1" as="geometry">
            <mxPoint x="390" y="300" as="sourcePoint" />
            <mxPoint x="390" y="360" as="targetPoint" />
          </mxGeometry>
        </mxCell>
        <mxCell id="msDLo6iu01Qnxue_6RTU-17" value="난이도 선택 UI 반환" style="edgeLabel;html=1;align=center;verticalAlign=middle;resizable=0;points=[];fontSize=12;fontFamily=Helvetica;fontColor=default;" parent="msDLo6iu01Qnxue_6RTU-16" vertex="1" connectable="0">
          <mxGeometry x="-0.169" y="3" relative="1" as="geometry">
            <mxPoint x="-76" y="-4" as="offset" />
          </mxGeometry>
        </mxCell>
        <mxCell id="XXJm8boQB2INkS-OPUiB-9" style="edgeStyle=orthogonalEdgeStyle;shape=connector;rounded=0;orthogonalLoop=1;jettySize=auto;html=1;exitX=1;exitY=0.25;exitDx=0;exitDy=0;entryX=0.66;entryY=1.019;entryDx=0;entryDy=0;entryPerimeter=0;labelBackgroundColor=default;strokeColor=default;strokeWidth=3;fontFamily=Helvetica;fontSize=12;fontColor=default;endArrow=classic;" parent="1" source="9ptM2fobtE_dvvtiio05-1" target="sKtcUCVqXiFIOjBCG5N--4" edge="1">
          <mxGeometry relative="1" as="geometry" />
        </mxCell>
        <mxCell id="XXJm8boQB2INkS-OPUiB-12" value="사용자가 선택한 연령층, 스테이지, 난이도 정보 요청" style="edgeLabel;html=1;align=center;verticalAlign=middle;resizable=0;points=[];fontSize=12;fontFamily=Helvetica;fontColor=default;" parent="XXJm8boQB2INkS-OPUiB-9" vertex="1" connectable="0">
          <mxGeometry x="-0.6632" y="-2" relative="1" as="geometry">
            <mxPoint x="64" as="offset" />
          </mxGeometry>
        </mxCell>
        <mxCell id="C5HRvm2PwkVHPC0ECW50-9" style="edgeStyle=orthogonalEdgeStyle;shape=connector;rounded=0;orthogonalLoop=1;jettySize=auto;html=1;exitX=0;exitY=0.5;exitDx=0;exitDy=0;entryX=0.5;entryY=1;entryDx=0;entryDy=0;labelBackgroundColor=default;strokeColor=default;strokeWidth=3;fontFamily=Helvetica;fontSize=12;fontColor=default;endArrow=classic;" parent="1" source="9ptM2fobtE_dvvtiio05-1" target="sKtcUCVqXiFIOjBCG5N--3" edge="1">
          <mxGeometry relative="1" as="geometry" />
        </mxCell>
        <mxCell id="C5HRvm2PwkVHPC0ECW50-11" value="게임 인트로 UI 제공" style="edgeLabel;html=1;align=center;verticalAlign=middle;resizable=0;points=[];fontSize=12;fontFamily=Helvetica;fontColor=default;" parent="C5HRvm2PwkVHPC0ECW50-9" vertex="1" connectable="0">
          <mxGeometry x="-0.2326" y="-1" relative="1" as="geometry">
            <mxPoint x="31" y="1" as="offset" />
          </mxGeometry>
        </mxCell>
        <mxCell id="9ptM2fobtE_dvvtiio05-1" value="&lt;font color=&quot;#00cc00&quot;&gt;CH04&lt;/font&gt;&lt;br&gt;게임 플레이" style="shape=process;whiteSpace=wrap;html=1;backgroundOutline=1;rounded=0;strokeColor=default;strokeWidth=5;fontFamily=Helvetica;fontSize=12;fontColor=default;fillColor=none;" parent="1" vertex="1">
          <mxGeometry x="320" y="460" width="120" height="50" as="geometry" />
        </mxCell>
        <mxCell id="XXJm8boQB2INkS-OPUiB-14" style="edgeStyle=orthogonalEdgeStyle;shape=connector;rounded=0;orthogonalLoop=1;jettySize=auto;html=1;exitX=0;exitY=0.5;exitDx=0;exitDy=0;entryX=0.5;entryY=1;entryDx=0;entryDy=0;labelBackgroundColor=default;strokeColor=default;strokeWidth=3;fontFamily=Helvetica;fontSize=12;fontColor=default;endArrow=classic;" parent="1" source="XXJm8boQB2INkS-OPUiB-6" target="9ptM2fobtE_dvvtiio05-1" edge="1">
          <mxGeometry relative="1" as="geometry">
            <Array as="points">
              <mxPoint x="566" y="530" />
              <mxPoint x="380" y="530" />
            </Array>
          </mxGeometry>
        </mxCell>
        <mxCell id="XXJm8boQB2INkS-OPUiB-15" value="게임 UI 제공" style="edgeLabel;html=1;align=center;verticalAlign=middle;resizable=0;points=[];fontSize=12;fontFamily=Helvetica;fontColor=default;" parent="XXJm8boQB2INkS-OPUiB-14" vertex="1" connectable="0">
          <mxGeometry x="0.3269" relative="1" as="geometry">
            <mxPoint x="40" as="offset" />
          </mxGeometry>
        </mxCell>
        <mxCell id="XXJm8boQB2INkS-OPUiB-6" value="" style="html=1;dashed=0;whiteSpace=wrap;shape=mxgraph.dfd.dataStoreID;align=left;spacingLeft=3;points=[[0,0],[0.5,0],[1,0],[0,0.5],[1,0.5],[0,1],[0.5,1],[1,1]];rounded=0;strokeColor=#9673a6;strokeWidth=5;fontFamily=Helvetica;fontSize=12;fillColor=#e1d5e7;" parent="1" vertex="1">
          <mxGeometry x="566" y="510" width="180" height="35" as="geometry" />
        </mxCell>
        <mxCell id="XXJm8boQB2INkS-OPUiB-7" value="게임 플레이 데이터 및&lt;br&gt;게임 UI 저장소" style="text;html=1;strokeColor=none;fillColor=none;align=center;verticalAlign=middle;whiteSpace=wrap;rounded=0;fontSize=12;fontFamily=Helvetica;fontColor=default;" parent="1" vertex="1">
          <mxGeometry x="602" y="512" width="140" height="30" as="geometry" />
        </mxCell>
        <mxCell id="lqgTt73xtb88ifHr1dGc-3" value="" style="html=1;dashed=0;whiteSpace=wrap;shape=mxgraph.dfd.dataStoreID;align=left;spacingLeft=3;points=[[0,0],[0.5,0],[1,0],[0,0.5],[1,0.5],[0,1],[0.5,1],[1,1]];rounded=0;strokeColor=default;strokeWidth=5;fontFamily=Helvetica;fontSize=12;fontColor=default;fillColor=none;" parent="1" vertex="1">
          <mxGeometry x="570" y="25" width="180" height="35" as="geometry" />
        </mxCell>
        <mxCell id="lqgTt73xtb88ifHr1dGc-4" value="플레이 전 선택값 및&lt;br&gt;선택지 UI 저장소" style="text;html=1;strokeColor=none;fillColor=none;align=center;verticalAlign=middle;whiteSpace=wrap;rounded=0;fontSize=12;fontFamily=Helvetica;fontColor=default;" parent="1" vertex="1">
          <mxGeometry x="606" y="27" width="140" height="30" as="geometry" />
        </mxCell>
      </root>
    </mxGraphModel>
  </diagram>
  <diagram id="2wixUGjzBd_yaq6XEZNQ" name="DataFlowChart_v.1.0.1(level 2_CH04)">
    <mxGraphModel dx="1026" dy="661" grid="1" gridSize="10" guides="1" tooltips="1" connect="1" arrows="1" fold="1" page="1" pageScale="1" pageWidth="827" pageHeight="1169" math="0" shadow="0">
      <root>
        <mxCell id="0" />
        <mxCell id="1" parent="0" />
        <mxCell id="boWPYJEoA3bFnhoYIlbb-2" style="shape=connector;rounded=0;orthogonalLoop=1;jettySize=auto;html=1;exitX=0.5;exitY=1;exitDx=0;exitDy=0;entryX=0.5;entryY=0;entryDx=0;entryDy=0;labelBackgroundColor=default;strokeColor=default;strokeWidth=3;fontFamily=Helvetica;fontSize=12;fontColor=default;endArrow=classic;" parent="1" source="lOOeCcCA2mXFK2r3pZeW-5" target="xiz354nZn93ouAhxg1Xn-5" edge="1">
          <mxGeometry relative="1" as="geometry">
            <mxPoint x="351" y="80" as="sourcePoint" />
            <mxPoint x="585" y="78" as="targetPoint" />
          </mxGeometry>
        </mxCell>
        <mxCell id="xiz354nZn93ouAhxg1Xn-2" style="shape=connector;rounded=0;orthogonalLoop=1;jettySize=auto;html=1;labelBackgroundColor=default;strokeColor=default;strokeWidth=3;fontFamily=Helvetica;fontSize=12;fontColor=default;endArrow=classic;exitX=0.969;exitY=0.983;exitDx=0;exitDy=0;exitPerimeter=0;edgeStyle=orthogonalEdgeStyle;entryX=0.97;entryY=0.058;entryDx=0;entryDy=0;entryPerimeter=0;" parent="1" source="boWPYJEoA3bFnhoYIlbb-1" target="RXfigwHiqE_FBJtmdULg-1" edge="1">
          <mxGeometry relative="1" as="geometry">
            <mxPoint x="872" y="66" as="sourcePoint" />
            <mxPoint x="770" y="330" as="targetPoint" />
            <Array as="points" />
          </mxGeometry>
        </mxCell>
        <mxCell id="xiz354nZn93ouAhxg1Xn-3" value="&lt;span style=&quot;background-color: rgb(255, 255, 255);&quot;&gt;사용자가 선택한&lt;br&gt;연령층, 스테이지, 난이도&lt;br&gt;정보 전달&lt;/span&gt;" style="edgeLabel;html=1;align=center;verticalAlign=middle;resizable=0;points=[];fontSize=12;fontFamily=Helvetica;fontColor=default;" parent="xiz354nZn93ouAhxg1Xn-2" vertex="1" connectable="0">
          <mxGeometry x="0.1793" y="-2" relative="1" as="geometry">
            <mxPoint x="-4" y="-85" as="offset" />
          </mxGeometry>
        </mxCell>
        <mxCell id="xiz354nZn93ouAhxg1Xn-4" value="플레이 전 선택값 및&lt;br&gt;선택지에 따른 UI 저장소" style="text;html=1;strokeColor=none;fillColor=none;align=center;verticalAlign=middle;whiteSpace=wrap;rounded=0;fontSize=12;fontFamily=Helvetica;fontColor=default;" parent="1" vertex="1">
          <mxGeometry x="614" y="64" width="140" height="30" as="geometry" />
        </mxCell>
        <mxCell id="tdBtSQ0cg8yTgrIjO6c5-2" style="edgeStyle=orthogonalEdgeStyle;shape=connector;rounded=0;orthogonalLoop=1;jettySize=auto;html=1;exitX=0.5;exitY=1;exitDx=0;exitDy=0;entryX=0.5;entryY=0;entryDx=0;entryDy=0;labelBackgroundColor=default;strokeColor=default;strokeWidth=3;fontFamily=Helvetica;fontSize=12;fontColor=default;endArrow=classic;" parent="1" source="xiz354nZn93ouAhxg1Xn-5" target="tdBtSQ0cg8yTgrIjO6c5-1" edge="1">
          <mxGeometry relative="1" as="geometry" />
        </mxCell>
        <mxCell id="glhE3qmgnBIMylqQGGm4-8" value="인트로 화면 재생 끝&lt;br&gt;(스테이지 탐색 중 응급상황 목격)" style="edgeLabel;html=1;align=center;verticalAlign=middle;resizable=0;points=[];fontSize=12;fontFamily=Helvetica;fontColor=default;" parent="tdBtSQ0cg8yTgrIjO6c5-2" vertex="1" connectable="0">
          <mxGeometry x="-0.1406" y="-2" relative="1" as="geometry">
            <mxPoint y="-1" as="offset" />
          </mxGeometry>
        </mxCell>
        <mxCell id="glhE3qmgnBIMylqQGGm4-5" style="edgeStyle=orthogonalEdgeStyle;shape=connector;rounded=0;orthogonalLoop=1;jettySize=auto;html=1;exitX=1;exitY=0.5;exitDx=0;exitDy=0;entryX=1;entryY=0;entryDx=0;entryDy=0;labelBackgroundColor=default;strokeColor=default;strokeWidth=3;fontFamily=Helvetica;fontSize=12;fontColor=default;endArrow=classic;" parent="1" source="xiz354nZn93ouAhxg1Xn-5" target="xiz354nZn93ouAhxg1Xn-8" edge="1">
          <mxGeometry relative="1" as="geometry" />
        </mxCell>
        <mxCell id="glhE3qmgnBIMylqQGGm4-6" value="인트로 UI 요청" style="edgeLabel;html=1;align=center;verticalAlign=middle;resizable=0;points=[];fontSize=12;fontFamily=Helvetica;fontColor=default;" parent="glhE3qmgnBIMylqQGGm4-5" vertex="1" connectable="0">
          <mxGeometry x="-0.6478" y="1" relative="1" as="geometry">
            <mxPoint x="38" y="1" as="offset" />
          </mxGeometry>
        </mxCell>
        <mxCell id="xiz354nZn93ouAhxg1Xn-5" value="&lt;font color=&quot;#00cc00&quot;&gt;CH04-P00&lt;/font&gt;&lt;br&gt;인트로 화면" style="shape=process;whiteSpace=wrap;html=1;backgroundOutline=1;rounded=0;strokeColor=default;strokeWidth=5;fontFamily=Helvetica;fontSize=12;fontColor=default;fillColor=none;" parent="1" vertex="1">
          <mxGeometry x="260" y="176" width="120" height="50" as="geometry" />
        </mxCell>
        <mxCell id="boWPYJEoA3bFnhoYIlbb-4" style="edgeStyle=orthogonalEdgeStyle;shape=connector;rounded=0;orthogonalLoop=1;jettySize=auto;html=1;exitX=0.589;exitY=-0.066;exitDx=0;exitDy=0;entryX=1;entryY=0.75;entryDx=0;entryDy=0;labelBackgroundColor=default;strokeColor=default;strokeWidth=3;fontFamily=Helvetica;fontSize=12;fontColor=default;endArrow=classic;exitPerimeter=0;" parent="1" source="RXfigwHiqE_FBJtmdULg-1" target="xiz354nZn93ouAhxg1Xn-5" edge="1">
          <mxGeometry relative="1" as="geometry">
            <Array as="points">
              <mxPoint x="690" y="351" />
              <mxPoint x="690" y="214" />
              <mxPoint x="380" y="214" />
            </Array>
          </mxGeometry>
        </mxCell>
        <mxCell id="boWPYJEoA3bFnhoYIlbb-5" value="사용자가 선택한 스테이지의 인트로 UI 제공" style="edgeLabel;html=1;align=center;verticalAlign=middle;resizable=0;points=[];fontSize=12;fontFamily=Helvetica;fontColor=default;" parent="boWPYJEoA3bFnhoYIlbb-4" vertex="1" connectable="0">
          <mxGeometry x="0.3628" relative="1" as="geometry">
            <mxPoint x="-7" as="offset" />
          </mxGeometry>
        </mxCell>
        <mxCell id="RXfigwHiqE_FBJtmdULg-1" value="" style="html=1;dashed=0;whiteSpace=wrap;shape=mxgraph.dfd.dataStoreID;align=left;spacingLeft=3;points=[[0,0],[0.5,0],[1,0],[0,0.5],[1,0.5],[0,1],[0.5,1],[1,1]];rounded=0;strokeColor=#9673a6;strokeWidth=5;fontFamily=Helvetica;fontSize=12;fillColor=#e1d5e7;" parent="1" vertex="1">
          <mxGeometry x="585" y="353" width="180" height="35" as="geometry" />
        </mxCell>
        <mxCell id="boWPYJEoA3bFnhoYIlbb-1" value="" style="html=1;dashed=0;whiteSpace=wrap;shape=mxgraph.dfd.dataStoreID;align=left;spacingLeft=3;points=[[0,0],[0.5,0],[1,0],[0,0.5],[1,0.5],[0,1],[0.5,1],[1,1]];rounded=0;strokeColor=default;strokeWidth=5;fontFamily=Helvetica;fontSize=12;fontColor=default;fillColor=none;" parent="1" vertex="1">
          <mxGeometry x="585" y="62.5" width="180" height="35" as="geometry" />
        </mxCell>
        <mxCell id="tdBtSQ0cg8yTgrIjO6c5-5" style="edgeStyle=orthogonalEdgeStyle;shape=connector;rounded=0;orthogonalLoop=1;jettySize=auto;html=1;exitX=0.5;exitY=0;exitDx=0;exitDy=0;entryX=0;entryY=0.25;entryDx=0;entryDy=0;labelBackgroundColor=default;strokeColor=default;strokeWidth=3;fontFamily=Helvetica;fontSize=12;fontColor=default;endArrow=classic;" parent="1" source="boWPYJEoA3bFnhoYIlbb-6" target="tdBtSQ0cg8yTgrIjO6c5-1" edge="1">
          <mxGeometry relative="1" as="geometry" />
        </mxCell>
        <mxCell id="tdBtSQ0cg8yTgrIjO6c5-6" value="상황별 대사 선택" style="edgeLabel;html=1;align=center;verticalAlign=middle;resizable=0;points=[];fontSize=12;fontFamily=Helvetica;fontColor=default;" parent="tdBtSQ0cg8yTgrIjO6c5-5" vertex="1" connectable="0">
          <mxGeometry x="0.3245" y="-3" relative="1" as="geometry">
            <mxPoint x="-30" y="-5" as="offset" />
          </mxGeometry>
        </mxCell>
        <mxCell id="lOOeCcCA2mXFK2r3pZeW-6" style="edgeStyle=orthogonalEdgeStyle;shape=connector;rounded=0;orthogonalLoop=1;jettySize=auto;html=1;exitX=0.75;exitY=1;exitDx=0;exitDy=0;entryX=0;entryY=0.5;entryDx=0;entryDy=0;labelBackgroundColor=default;strokeColor=default;strokeWidth=3;fontFamily=Helvetica;fontSize=12;fontColor=default;endArrow=classic;" parent="1" source="boWPYJEoA3bFnhoYIlbb-6" target="tdBtSQ0cg8yTgrIjO6c5-12" edge="1">
          <mxGeometry relative="1" as="geometry" />
        </mxCell>
        <mxCell id="lOOeCcCA2mXFK2r3pZeW-7" value="심폐소생술 플레이 요청" style="edgeLabel;html=1;align=center;verticalAlign=middle;resizable=0;points=[];fontSize=12;fontFamily=Helvetica;fontColor=default;" parent="lOOeCcCA2mXFK2r3pZeW-6" vertex="1" connectable="0">
          <mxGeometry x="-0.0327" y="1" relative="1" as="geometry">
            <mxPoint x="-21" y="-24" as="offset" />
          </mxGeometry>
        </mxCell>
        <mxCell id="DthZtnm7cssTYaOF08NV-3" style="edgeStyle=orthogonalEdgeStyle;shape=connector;rounded=0;orthogonalLoop=1;jettySize=auto;html=1;exitX=0.25;exitY=0;exitDx=0;exitDy=0;entryX=0;entryY=0.25;entryDx=0;entryDy=0;labelBackgroundColor=default;strokeColor=default;strokeWidth=3;fontFamily=Helvetica;fontSize=12;fontColor=default;endArrow=classic;" parent="1" source="boWPYJEoA3bFnhoYIlbb-6" target="xiz354nZn93ouAhxg1Xn-5" edge="1">
          <mxGeometry relative="1" as="geometry" />
        </mxCell>
        <mxCell id="DthZtnm7cssTYaOF08NV-4" value="스테이지에 맞는 인트로 화면 재생" style="edgeLabel;html=1;align=center;verticalAlign=middle;resizable=0;points=[];fontSize=12;fontFamily=Helvetica;fontColor=default;" parent="DthZtnm7cssTYaOF08NV-3" vertex="1" connectable="0">
          <mxGeometry x="0.213" y="-3" relative="1" as="geometry">
            <mxPoint x="27" as="offset" />
          </mxGeometry>
        </mxCell>
        <mxCell id="boWPYJEoA3bFnhoYIlbb-6" value="&lt;font style=&quot;font-size: 12px;&quot;&gt;모바일 디바이스&lt;/font&gt;" style="rounded=0;whiteSpace=wrap;html=1;fillColor=#ffe6cc;strokeWidth=5;strokeColor=#d79b00;" parent="1" vertex="1">
          <mxGeometry x="10" y="338" width="100" height="50" as="geometry" />
        </mxCell>
        <mxCell id="tdBtSQ0cg8yTgrIjO6c5-7" style="edgeStyle=orthogonalEdgeStyle;shape=connector;rounded=0;orthogonalLoop=1;jettySize=auto;html=1;exitX=1;exitY=0.25;exitDx=0;exitDy=0;labelBackgroundColor=default;strokeColor=default;strokeWidth=3;fontFamily=Helvetica;fontSize=12;fontColor=default;endArrow=classic;entryX=0.5;entryY=0;entryDx=0;entryDy=0;" parent="1" source="tdBtSQ0cg8yTgrIjO6c5-1" target="xiz354nZn93ouAhxg1Xn-8" edge="1">
          <mxGeometry relative="1" as="geometry">
            <mxPoint x="630" y="313.5" as="targetPoint" />
          </mxGeometry>
        </mxCell>
        <mxCell id="tdBtSQ0cg8yTgrIjO6c5-9" value="상황별 문답 저장, UI 요청" style="edgeLabel;html=1;align=center;verticalAlign=middle;resizable=0;points=[];fontSize=12;fontFamily=Helvetica;fontColor=default;" parent="tdBtSQ0cg8yTgrIjO6c5-7" vertex="1" connectable="0">
          <mxGeometry x="-0.1645" y="-1" relative="1" as="geometry">
            <mxPoint y="-4" as="offset" />
          </mxGeometry>
        </mxCell>
        <mxCell id="tdBtSQ0cg8yTgrIjO6c5-13" value="" style="edgeStyle=orthogonalEdgeStyle;shape=connector;rounded=0;orthogonalLoop=1;jettySize=auto;html=1;labelBackgroundColor=default;strokeColor=default;strokeWidth=3;fontFamily=Helvetica;fontSize=12;fontColor=default;endArrow=classic;" parent="1" source="tdBtSQ0cg8yTgrIjO6c5-1" target="tdBtSQ0cg8yTgrIjO6c5-12" edge="1">
          <mxGeometry relative="1" as="geometry" />
        </mxCell>
        <mxCell id="glhE3qmgnBIMylqQGGm4-7" value="5개의 문답 완료" style="edgeLabel;html=1;align=center;verticalAlign=middle;resizable=0;points=[];fontSize=12;fontFamily=Helvetica;fontColor=default;" parent="tdBtSQ0cg8yTgrIjO6c5-13" vertex="1" connectable="0">
          <mxGeometry x="-0.1682" y="-1" relative="1" as="geometry">
            <mxPoint as="offset" />
          </mxGeometry>
        </mxCell>
        <mxCell id="lOOeCcCA2mXFK2r3pZeW-3" style="edgeStyle=orthogonalEdgeStyle;shape=connector;rounded=0;orthogonalLoop=1;jettySize=auto;html=1;exitX=0;exitY=0.5;exitDx=0;exitDy=0;entryX=0.75;entryY=0;entryDx=0;entryDy=0;labelBackgroundColor=default;strokeColor=default;strokeWidth=3;fontFamily=Helvetica;fontSize=12;fontColor=default;endArrow=classic;" parent="1" source="tdBtSQ0cg8yTgrIjO6c5-1" target="boWPYJEoA3bFnhoYIlbb-6" edge="1">
          <mxGeometry relative="1" as="geometry" />
        </mxCell>
        <mxCell id="lOOeCcCA2mXFK2r3pZeW-4" value="NPC 상대 UI 제공" style="edgeLabel;html=1;align=center;verticalAlign=middle;resizable=0;points=[];fontSize=12;fontFamily=Helvetica;fontColor=default;" parent="lOOeCcCA2mXFK2r3pZeW-3" vertex="1" connectable="0">
          <mxGeometry x="0.1525" y="-1" relative="1" as="geometry">
            <mxPoint x="5" y="1" as="offset" />
          </mxGeometry>
        </mxCell>
        <mxCell id="tdBtSQ0cg8yTgrIjO6c5-1" value="&lt;font color=&quot;#00cc00&quot;&gt;CH04-P01&lt;/font&gt;&lt;br&gt;FaT 플레이 1.&lt;br&gt;NPC 상대" style="shape=process;whiteSpace=wrap;html=1;backgroundOutline=1;rounded=0;strokeColor=default;strokeWidth=5;fontFamily=Helvetica;fontSize=12;fontColor=default;fillColor=none;" parent="1" vertex="1">
          <mxGeometry x="260" y="288" width="120" height="50" as="geometry" />
        </mxCell>
        <mxCell id="lOOeCcCA2mXFK2r3pZeW-15" style="edgeStyle=orthogonalEdgeStyle;shape=connector;rounded=0;orthogonalLoop=1;jettySize=auto;html=1;exitX=1;exitY=0.25;exitDx=0;exitDy=0;entryX=0.5;entryY=1;entryDx=0;entryDy=0;labelBackgroundColor=default;strokeColor=default;strokeWidth=3;fontFamily=Helvetica;fontSize=12;fontColor=default;endArrow=classic;" parent="1" source="tdBtSQ0cg8yTgrIjO6c5-12" target="xiz354nZn93ouAhxg1Xn-8" edge="1">
          <mxGeometry relative="1" as="geometry" />
        </mxCell>
        <mxCell id="lOOeCcCA2mXFK2r3pZeW-16" value="사용자가 선택한 난이도에 맞는 심폐소생술 판정 결과 전달" style="edgeLabel;html=1;align=center;verticalAlign=middle;resizable=0;points=[];fontSize=12;fontFamily=Helvetica;fontColor=default;" parent="lOOeCcCA2mXFK2r3pZeW-15" vertex="1" connectable="0">
          <mxGeometry x="-0.4893" relative="1" as="geometry">
            <mxPoint x="63" as="offset" />
          </mxGeometry>
        </mxCell>
        <mxCell id="lOOeCcCA2mXFK2r3pZeW-20" style="edgeStyle=orthogonalEdgeStyle;shape=connector;rounded=0;orthogonalLoop=1;jettySize=auto;html=1;exitX=0;exitY=0.75;exitDx=0;exitDy=0;entryX=0.5;entryY=1;entryDx=0;entryDy=0;labelBackgroundColor=default;strokeColor=default;strokeWidth=3;fontFamily=Helvetica;fontSize=12;fontColor=default;endArrow=classic;" parent="1" source="tdBtSQ0cg8yTgrIjO6c5-12" target="boWPYJEoA3bFnhoYIlbb-6" edge="1">
          <mxGeometry relative="1" as="geometry" />
        </mxCell>
        <mxCell id="lOOeCcCA2mXFK2r3pZeW-21" value="심폐소생술 플레이 UI 제공" style="edgeLabel;html=1;align=center;verticalAlign=middle;resizable=0;points=[];fontSize=12;fontFamily=Helvetica;fontColor=default;" parent="lOOeCcCA2mXFK2r3pZeW-20" vertex="1" connectable="0">
          <mxGeometry x="0.0184" y="1" relative="1" as="geometry">
            <mxPoint x="26" as="offset" />
          </mxGeometry>
        </mxCell>
        <mxCell id="KB-Oj_nQkgOusc2tOekF-1" style="edgeStyle=orthogonalEdgeStyle;shape=connector;rounded=0;orthogonalLoop=1;jettySize=auto;html=1;exitX=0.5;exitY=1;exitDx=0;exitDy=0;labelBackgroundColor=default;strokeColor=default;strokeWidth=3;fontFamily=Helvetica;fontSize=12;fontColor=default;endArrow=classic;" parent="1" source="tdBtSQ0cg8yTgrIjO6c5-12" target="lOOeCcCA2mXFK2r3pZeW-23" edge="1">
          <mxGeometry relative="1" as="geometry" />
        </mxCell>
        <mxCell id="tdBtSQ0cg8yTgrIjO6c5-12" value="&lt;font color=&quot;#00cc00&quot;&gt;CH04-P02&lt;/font&gt;&lt;br&gt;FaT 플레이 2.&lt;br style=&quot;border-color: var(--border-color);&quot;&gt;심폐소생술" style="shape=process;whiteSpace=wrap;html=1;backgroundOutline=1;rounded=0;strokeColor=default;strokeWidth=5;fontFamily=Helvetica;fontSize=12;fontColor=default;fillColor=none;" parent="1" vertex="1">
          <mxGeometry x="260" y="418" width="120" height="50" as="geometry" />
        </mxCell>
        <mxCell id="lOOeCcCA2mXFK2r3pZeW-1" value="" style="endArrow=classic;html=1;rounded=0;labelBackgroundColor=default;strokeColor=default;strokeWidth=3;fontFamily=Helvetica;fontSize=12;fontColor=default;shape=connector;exitX=0.233;exitY=-0.031;exitDx=0;exitDy=0;exitPerimeter=0;entryX=1;entryY=0.75;entryDx=0;entryDy=0;edgeStyle=orthogonalEdgeStyle;" parent="1" source="RXfigwHiqE_FBJtmdULg-1" target="tdBtSQ0cg8yTgrIjO6c5-1" edge="1">
          <mxGeometry width="50" height="50" relative="1" as="geometry">
            <mxPoint x="590" y="369" as="sourcePoint" />
            <mxPoint x="640" y="319" as="targetPoint" />
            <Array as="points">
              <mxPoint x="627" y="325.5" />
            </Array>
          </mxGeometry>
        </mxCell>
        <mxCell id="lOOeCcCA2mXFK2r3pZeW-11" value="NPC (다음) 반응 및 UI 제공" style="edgeLabel;html=1;align=center;verticalAlign=middle;resizable=0;points=[];fontSize=12;fontFamily=Helvetica;fontColor=default;" parent="lOOeCcCA2mXFK2r3pZeW-1" vertex="1" connectable="0">
          <mxGeometry x="0.3095" y="1" relative="1" as="geometry">
            <mxPoint x="35" as="offset" />
          </mxGeometry>
        </mxCell>
        <mxCell id="glhE3qmgnBIMylqQGGm4-3" style="edgeStyle=orthogonalEdgeStyle;shape=connector;rounded=0;orthogonalLoop=1;jettySize=auto;html=1;exitX=1;exitY=0.5;exitDx=0;exitDy=0;labelBackgroundColor=default;strokeColor=default;strokeWidth=3;fontFamily=Helvetica;fontSize=12;fontColor=default;endArrow=classic;" parent="1" source="lOOeCcCA2mXFK2r3pZeW-5" target="boWPYJEoA3bFnhoYIlbb-1" edge="1">
          <mxGeometry relative="1" as="geometry" />
        </mxCell>
        <mxCell id="glhE3qmgnBIMylqQGGm4-4" value="플레이 시작 전달" style="edgeLabel;html=1;align=center;verticalAlign=middle;resizable=0;points=[];fontSize=12;fontFamily=Helvetica;fontColor=default;" parent="glhE3qmgnBIMylqQGGm4-3" vertex="1" connectable="0">
          <mxGeometry x="-0.1847" y="3" relative="1" as="geometry">
            <mxPoint as="offset" />
          </mxGeometry>
        </mxCell>
        <mxCell id="lOOeCcCA2mXFK2r3pZeW-5" value="인게임&lt;br&gt;시작" style="ellipse;shape=doubleEllipse;html=1;dashed=0;whiteSpace=wrap;aspect=fixed;rounded=0;strokeColor=default;strokeWidth=5;fontFamily=Helvetica;fontSize=12;fontColor=default;fillColor=none;" parent="1" vertex="1">
          <mxGeometry x="291" y="50" width="60" height="60" as="geometry" />
        </mxCell>
        <mxCell id="xiz354nZn93ouAhxg1Xn-8" value="게임 플레이 데이터 및&lt;br&gt;게임 UI 저장소" style="text;html=1;strokeColor=none;fillColor=none;align=center;verticalAlign=middle;whiteSpace=wrap;rounded=0;fontSize=12;fontFamily=Helvetica;fontColor=default;" parent="1" vertex="1">
          <mxGeometry x="605" y="355.5" width="140" height="30" as="geometry" />
        </mxCell>
        <mxCell id="lOOeCcCA2mXFK2r3pZeW-18" value="" style="endArrow=classic;html=1;rounded=0;labelBackgroundColor=default;strokeColor=default;strokeWidth=3;fontFamily=Helvetica;fontSize=12;fontColor=default;shape=connector;exitX=0.583;exitY=1.096;exitDx=0;exitDy=0;exitPerimeter=0;entryX=1;entryY=0.75;entryDx=0;entryDy=0;edgeStyle=orthogonalEdgeStyle;" parent="1" source="RXfigwHiqE_FBJtmdULg-1" target="tdBtSQ0cg8yTgrIjO6c5-12" edge="1">
          <mxGeometry width="50" height="50" relative="1" as="geometry">
            <mxPoint x="480" y="410" as="sourcePoint" />
            <mxPoint x="530" y="360" as="targetPoint" />
            <Array as="points">
              <mxPoint x="690" y="456" />
              <mxPoint x="482" y="456" />
            </Array>
          </mxGeometry>
        </mxCell>
        <mxCell id="lOOeCcCA2mXFK2r3pZeW-19" value="심폐소생술 판정에 맞는 하트 개수 조정" style="edgeLabel;html=1;align=center;verticalAlign=middle;resizable=0;points=[];fontSize=12;fontFamily=Helvetica;fontColor=default;" parent="lOOeCcCA2mXFK2r3pZeW-18" vertex="1" connectable="0">
          <mxGeometry x="0.5698" y="1" relative="1" as="geometry">
            <mxPoint x="80" as="offset" />
          </mxGeometry>
        </mxCell>
        <mxCell id="KB-Oj_nQkgOusc2tOekF-3" style="edgeStyle=orthogonalEdgeStyle;shape=connector;rounded=0;orthogonalLoop=1;jettySize=auto;html=1;exitX=0.5;exitY=1;exitDx=0;exitDy=0;entryX=0.5;entryY=0;entryDx=0;entryDy=0;labelBackgroundColor=default;strokeColor=#b85450;strokeWidth=3;fontFamily=Helvetica;fontSize=12;fontColor=default;endArrow=classic;fillColor=#f8cecc;" parent="1" source="lOOeCcCA2mXFK2r3pZeW-23" target="KB-Oj_nQkgOusc2tOekF-2" edge="1">
          <mxGeometry relative="1" as="geometry" />
        </mxCell>
        <mxCell id="KB-Oj_nQkgOusc2tOekF-4" value="NO" style="edgeLabel;html=1;align=center;verticalAlign=middle;resizable=0;points=[];fontSize=12;fontFamily=Helvetica;fontColor=default;" parent="KB-Oj_nQkgOusc2tOekF-3" vertex="1" connectable="0">
          <mxGeometry x="-0.3325" y="-1" relative="1" as="geometry">
            <mxPoint x="1" y="2" as="offset" />
          </mxGeometry>
        </mxCell>
        <mxCell id="glhE3qmgnBIMylqQGGm4-9" style="edgeStyle=orthogonalEdgeStyle;shape=connector;rounded=0;orthogonalLoop=1;jettySize=auto;html=1;exitX=1;exitY=0.5;exitDx=0;exitDy=0;entryX=1;entryY=0.5;entryDx=0;entryDy=0;labelBackgroundColor=default;strokeColor=#82b366;strokeWidth=3;fontFamily=Helvetica;fontSize=12;fontColor=default;endArrow=classic;fillColor=#d5e8d4;" parent="1" source="lOOeCcCA2mXFK2r3pZeW-23" target="EyyxdqxQYQP_QWnb_aDk-16" edge="1">
          <mxGeometry relative="1" as="geometry">
            <Array as="points">
              <mxPoint x="520" y="560" />
              <mxPoint x="520" y="990" />
            </Array>
          </mxGeometry>
        </mxCell>
        <mxCell id="glhE3qmgnBIMylqQGGm4-10" value="Yes" style="edgeLabel;html=1;align=center;verticalAlign=middle;resizable=0;points=[];fontSize=12;fontFamily=Helvetica;fontColor=default;" parent="glhE3qmgnBIMylqQGGm4-9" vertex="1" connectable="0">
          <mxGeometry x="-0.9041" y="-1" relative="1" as="geometry">
            <mxPoint as="offset" />
          </mxGeometry>
        </mxCell>
        <mxCell id="lOOeCcCA2mXFK2r3pZeW-23" value="&lt;font style=&quot;font-size: 12px;&quot;&gt;하트가 10개&lt;br style=&quot;border-color: var(--border-color);&quot;&gt;혹은 0개&lt;br style=&quot;border-color: var(--border-color);&quot;&gt;인가?&lt;/font&gt;" style="rhombus;whiteSpace=wrap;html=1;rounded=0;strokeColor=default;strokeWidth=5;fontFamily=Helvetica;fontSize=12;fontColor=default;fillColor=none;" parent="1" vertex="1">
          <mxGeometry x="270" y="510" width="100" height="100" as="geometry" />
        </mxCell>
        <mxCell id="KB-Oj_nQkgOusc2tOekF-12" style="edgeStyle=orthogonalEdgeStyle;shape=connector;rounded=0;orthogonalLoop=1;jettySize=auto;html=1;exitX=1;exitY=0.25;exitDx=0;exitDy=0;entryX=0.5;entryY=0;entryDx=0;entryDy=0;labelBackgroundColor=default;strokeColor=default;strokeWidth=3;fontFamily=Helvetica;fontSize=12;fontColor=default;endArrow=classic;" parent="1" source="KB-Oj_nQkgOusc2tOekF-2" target="KB-Oj_nQkgOusc2tOekF-10" edge="1">
          <mxGeometry relative="1" as="geometry">
            <Array as="points">
              <mxPoint x="675" y="683" />
            </Array>
          </mxGeometry>
        </mxCell>
        <mxCell id="KB-Oj_nQkgOusc2tOekF-13" value="사용자가 선택한 난이도에 맞는 흉부압박 판정 결과 전달" style="edgeLabel;html=1;align=center;verticalAlign=middle;resizable=0;points=[];fontSize=12;fontFamily=Helvetica;fontColor=default;" parent="KB-Oj_nQkgOusc2tOekF-12" vertex="1" connectable="0">
          <mxGeometry x="-0.5" y="-1" relative="1" as="geometry">
            <mxPoint x="48" y="-1" as="offset" />
          </mxGeometry>
        </mxCell>
        <mxCell id="EyyxdqxQYQP_QWnb_aDk-6" style="edgeStyle=orthogonalEdgeStyle;shape=connector;rounded=0;orthogonalLoop=1;jettySize=auto;html=1;exitX=0;exitY=0.75;exitDx=0;exitDy=0;entryX=0.75;entryY=0;entryDx=0;entryDy=0;labelBackgroundColor=default;strokeColor=default;strokeWidth=3;fontFamily=Helvetica;fontSize=12;fontColor=default;endArrow=classic;" parent="1" source="KB-Oj_nQkgOusc2tOekF-2" target="KB-Oj_nQkgOusc2tOekF-7" edge="1">
          <mxGeometry relative="1" as="geometry" />
        </mxCell>
        <mxCell id="EyyxdqxQYQP_QWnb_aDk-7" value="흉부압박 UI 제공" style="edgeLabel;html=1;align=center;verticalAlign=middle;resizable=0;points=[];fontSize=12;fontFamily=Helvetica;fontColor=default;" parent="EyyxdqxQYQP_QWnb_aDk-6" vertex="1" connectable="0">
          <mxGeometry x="0.3488" y="-2" relative="1" as="geometry">
            <mxPoint x="21" y="27" as="offset" />
          </mxGeometry>
        </mxCell>
        <mxCell id="EyyxdqxQYQP_QWnb_aDk-9" style="edgeStyle=orthogonalEdgeStyle;shape=connector;rounded=0;orthogonalLoop=1;jettySize=auto;html=1;exitX=0.5;exitY=1;exitDx=0;exitDy=0;labelBackgroundColor=default;strokeColor=default;strokeWidth=3;fontFamily=Helvetica;fontSize=12;fontColor=default;endArrow=classic;" parent="1" source="KB-Oj_nQkgOusc2tOekF-2" target="EyyxdqxQYQP_QWnb_aDk-8" edge="1">
          <mxGeometry relative="1" as="geometry" />
        </mxCell>
        <mxCell id="glhE3qmgnBIMylqQGGm4-11" value="흉부압박 플레이 시간 끝남" style="edgeLabel;html=1;align=center;verticalAlign=middle;resizable=0;points=[];fontSize=12;fontFamily=Helvetica;fontColor=default;" parent="EyyxdqxQYQP_QWnb_aDk-9" vertex="1" connectable="0">
          <mxGeometry x="-0.1965" y="3" relative="1" as="geometry">
            <mxPoint x="1" as="offset" />
          </mxGeometry>
        </mxCell>
        <mxCell id="KB-Oj_nQkgOusc2tOekF-2" value="&lt;font color=&quot;#00cc00&quot;&gt;CH04-P03&lt;/font&gt;&lt;br&gt;FaT 플레이 1.&lt;br style=&quot;border-color: var(--border-color);&quot;&gt;흉부압박" style="shape=process;whiteSpace=wrap;html=1;backgroundOutline=1;rounded=0;strokeColor=default;strokeWidth=5;fontFamily=Helvetica;fontSize=12;fontColor=default;fillColor=none;" parent="1" vertex="1">
          <mxGeometry x="261" y="670" width="120" height="50" as="geometry" />
        </mxCell>
        <mxCell id="KB-Oj_nQkgOusc2tOekF-8" style="edgeStyle=orthogonalEdgeStyle;shape=connector;rounded=0;orthogonalLoop=1;jettySize=auto;html=1;exitX=0.5;exitY=0;exitDx=0;exitDy=0;entryX=0;entryY=0.25;entryDx=0;entryDy=0;labelBackgroundColor=default;strokeColor=default;strokeWidth=3;fontFamily=Helvetica;fontSize=12;fontColor=default;endArrow=classic;" parent="1" source="KB-Oj_nQkgOusc2tOekF-7" target="KB-Oj_nQkgOusc2tOekF-2" edge="1">
          <mxGeometry relative="1" as="geometry">
            <Array as="points">
              <mxPoint x="60" y="683" />
            </Array>
          </mxGeometry>
        </mxCell>
        <mxCell id="KB-Oj_nQkgOusc2tOekF-9" value="흉부압박 플레이" style="edgeLabel;html=1;align=center;verticalAlign=middle;resizable=0;points=[];fontSize=12;fontFamily=Helvetica;fontColor=default;" parent="KB-Oj_nQkgOusc2tOekF-8" vertex="1" connectable="0">
          <mxGeometry x="-0.3869" y="-3" relative="1" as="geometry">
            <mxPoint x="21" y="-2" as="offset" />
          </mxGeometry>
        </mxCell>
        <mxCell id="KB-Oj_nQkgOusc2tOekF-7" value="&lt;font style=&quot;font-size: 12px;&quot;&gt;모바일 디바이스&lt;/font&gt;" style="rounded=0;whiteSpace=wrap;html=1;fillColor=#ffe6cc;strokeWidth=5;strokeColor=#d79b00;" parent="1" vertex="1">
          <mxGeometry x="10" y="890" width="100" height="50" as="geometry" />
        </mxCell>
        <mxCell id="eP0m3ZbNeXoQ2vMLRKZ7-9" style="edgeStyle=orthogonalEdgeStyle;shape=connector;rounded=0;orthogonalLoop=1;jettySize=auto;html=1;exitX=0;exitY=0.5;exitDx=0;exitDy=0;entryX=1;entryY=0;entryDx=0;entryDy=0;labelBackgroundColor=default;strokeColor=default;strokeWidth=3;fontFamily=Helvetica;fontSize=12;fontColor=default;endArrow=none;startArrow=classic;startFill=1;endFill=0;" parent="1" source="KB-Oj_nQkgOusc2tOekF-10" target="EyyxdqxQYQP_QWnb_aDk-8" edge="1">
          <mxGeometry relative="1" as="geometry" />
        </mxCell>
        <mxCell id="eP0m3ZbNeXoQ2vMLRKZ7-11" value="사용자의 잔여 하트 개수 요청" style="edgeLabel;html=1;align=center;verticalAlign=middle;resizable=0;points=[];fontSize=12;fontFamily=Helvetica;fontColor=default;" parent="eP0m3ZbNeXoQ2vMLRKZ7-9" vertex="1" connectable="0">
          <mxGeometry x="0.2266" relative="1" as="geometry">
            <mxPoint x="21" y="1" as="offset" />
          </mxGeometry>
        </mxCell>
        <mxCell id="eP0m3ZbNeXoQ2vMLRKZ7-12" style="edgeStyle=orthogonalEdgeStyle;shape=connector;rounded=0;orthogonalLoop=1;jettySize=auto;html=1;exitX=0;exitY=1;exitDx=0;exitDy=0;entryX=1;entryY=0.5;entryDx=0;entryDy=0;labelBackgroundColor=default;strokeColor=default;strokeWidth=3;fontFamily=Helvetica;fontSize=12;fontColor=default;endArrow=classic;" parent="1" source="KB-Oj_nQkgOusc2tOekF-10" target="EyyxdqxQYQP_QWnb_aDk-8" edge="1">
          <mxGeometry relative="1" as="geometry">
            <Array as="points">
              <mxPoint x="585" y="820" />
              <mxPoint x="478" y="820" />
              <mxPoint x="478" y="830" />
            </Array>
          </mxGeometry>
        </mxCell>
        <mxCell id="eP0m3ZbNeXoQ2vMLRKZ7-13" value="하트 개수 반환" style="edgeLabel;html=1;align=center;verticalAlign=middle;resizable=0;points=[];fontSize=12;fontFamily=Helvetica;fontColor=default;" parent="eP0m3ZbNeXoQ2vMLRKZ7-12" vertex="1" connectable="0">
          <mxGeometry x="0.4524" y="-1" relative="1" as="geometry">
            <mxPoint as="offset" />
          </mxGeometry>
        </mxCell>
        <mxCell id="KB-Oj_nQkgOusc2tOekF-10" value="" style="html=1;dashed=0;whiteSpace=wrap;shape=mxgraph.dfd.dataStoreID;align=left;spacingLeft=3;points=[[0,0],[0.5,0],[1,0],[0,0.5],[1,0.5],[0,1],[0.5,1],[1,1]];rounded=0;strokeColor=#9673a6;strokeWidth=5;fontFamily=Helvetica;fontSize=12;fillColor=#e1d5e7;" parent="1" vertex="1">
          <mxGeometry x="585" y="788" width="180" height="35" as="geometry" />
        </mxCell>
        <mxCell id="EyyxdqxQYQP_QWnb_aDk-3" style="edgeStyle=orthogonalEdgeStyle;shape=connector;rounded=0;orthogonalLoop=1;jettySize=auto;html=1;exitX=0.25;exitY=0;exitDx=0;exitDy=0;entryX=1;entryY=0.75;entryDx=0;entryDy=0;labelBackgroundColor=default;strokeColor=default;strokeWidth=3;fontFamily=Helvetica;fontSize=12;fontColor=default;endArrow=classic;" parent="1" source="KB-Oj_nQkgOusc2tOekF-11" target="KB-Oj_nQkgOusc2tOekF-2" edge="1">
          <mxGeometry relative="1" as="geometry" />
        </mxCell>
        <mxCell id="EyyxdqxQYQP_QWnb_aDk-4" value="흉부압박 판정에 맞는 하트 개수 조정" style="edgeLabel;html=1;align=center;verticalAlign=middle;resizable=0;points=[];fontSize=12;fontFamily=Helvetica;fontColor=default;" parent="EyyxdqxQYQP_QWnb_aDk-3" vertex="1" connectable="0">
          <mxGeometry x="0.7151" y="2" relative="1" as="geometry">
            <mxPoint x="80" as="offset" />
          </mxGeometry>
        </mxCell>
        <mxCell id="eP0m3ZbNeXoQ2vMLRKZ7-20" style="edgeStyle=orthogonalEdgeStyle;shape=connector;rounded=0;orthogonalLoop=1;jettySize=auto;html=1;exitX=0.25;exitY=1;exitDx=0;exitDy=0;entryX=1;entryY=0.75;entryDx=0;entryDy=0;labelBackgroundColor=default;strokeColor=default;strokeWidth=7;fontFamily=Helvetica;fontSize=12;fontColor=default;endArrow=classic;" parent="1" source="KB-Oj_nQkgOusc2tOekF-11" target="eP0m3ZbNeXoQ2vMLRKZ7-4" edge="1">
          <mxGeometry relative="1" as="geometry" />
        </mxCell>
        <mxCell id="eP0m3ZbNeXoQ2vMLRKZ7-21" value="판정이 들어간&lt;br&gt;사용자의 선택 로그 반환" style="edgeLabel;html=1;align=center;verticalAlign=middle;resizable=0;points=[];fontSize=12;fontFamily=Helvetica;fontColor=default;" parent="eP0m3ZbNeXoQ2vMLRKZ7-20" vertex="1" connectable="0">
          <mxGeometry x="0.6244" y="1" relative="1" as="geometry">
            <mxPoint x="14" as="offset" />
          </mxGeometry>
        </mxCell>
        <mxCell id="KB-Oj_nQkgOusc2tOekF-11" value="게임 플레이 데이터 및&lt;br&gt;게임 UI 저장소" style="text;html=1;strokeColor=none;fillColor=none;align=center;verticalAlign=middle;whiteSpace=wrap;rounded=0;fontSize=12;fontFamily=Helvetica;fontColor=default;" parent="1" vertex="1">
          <mxGeometry x="605" y="791.5" width="140" height="30" as="geometry" />
        </mxCell>
        <mxCell id="EyyxdqxQYQP_QWnb_aDk-12" style="edgeStyle=orthogonalEdgeStyle;shape=connector;rounded=0;orthogonalLoop=1;jettySize=auto;html=1;exitX=1;exitY=1;exitDx=0;exitDy=0;entryX=1;entryY=1;entryDx=0;entryDy=0;labelBackgroundColor=default;strokeColor=#b85450;strokeWidth=3;fontFamily=Helvetica;fontSize=12;fontColor=default;endArrow=classic;fillColor=#f8cecc;" parent="1" source="EyyxdqxQYQP_QWnb_aDk-8" target="tdBtSQ0cg8yTgrIjO6c5-12" edge="1">
          <mxGeometry relative="1" as="geometry">
            <Array as="points">
              <mxPoint x="780" y="855" />
              <mxPoint x="780" y="468" />
            </Array>
          </mxGeometry>
        </mxCell>
        <mxCell id="EyyxdqxQYQP_QWnb_aDk-13" value="No" style="edgeLabel;html=1;align=center;verticalAlign=middle;resizable=0;points=[];fontSize=12;fontFamily=Helvetica;fontColor=default;" parent="EyyxdqxQYQP_QWnb_aDk-12" vertex="1" connectable="0">
          <mxGeometry x="-0.8906" y="-2" relative="1" as="geometry">
            <mxPoint y="-2" as="offset" />
          </mxGeometry>
        </mxCell>
        <mxCell id="EyyxdqxQYQP_QWnb_aDk-17" style="edgeStyle=orthogonalEdgeStyle;shape=connector;rounded=0;orthogonalLoop=1;jettySize=auto;html=1;exitX=0.5;exitY=1;exitDx=0;exitDy=0;labelBackgroundColor=default;strokeColor=#82b366;strokeWidth=3;fontFamily=Helvetica;fontSize=12;fontColor=default;endArrow=classic;fillColor=#d5e8d4;" parent="1" source="EyyxdqxQYQP_QWnb_aDk-8" target="EyyxdqxQYQP_QWnb_aDk-16" edge="1">
          <mxGeometry relative="1" as="geometry" />
        </mxCell>
        <mxCell id="EyyxdqxQYQP_QWnb_aDk-18" value="Yes" style="edgeLabel;html=1;align=center;verticalAlign=middle;resizable=0;points=[];fontSize=12;fontFamily=Helvetica;fontColor=default;" parent="EyyxdqxQYQP_QWnb_aDk-17" vertex="1" connectable="0">
          <mxGeometry x="-0.38" y="-1" relative="1" as="geometry">
            <mxPoint y="1" as="offset" />
          </mxGeometry>
        </mxCell>
        <mxCell id="EyyxdqxQYQP_QWnb_aDk-8" value="&lt;font style=&quot;font-size: 12px;&quot;&gt;하트가 10개&lt;br style=&quot;border-color: var(--border-color);&quot;&gt;혹은 0개&lt;br style=&quot;border-color: var(--border-color);&quot;&gt;인가?&lt;/font&gt;" style="rhombus;whiteSpace=wrap;html=1;rounded=0;strokeColor=default;strokeWidth=5;fontFamily=Helvetica;fontSize=12;fontColor=default;fillColor=none;" parent="1" vertex="1">
          <mxGeometry x="271" y="780" width="100" height="100" as="geometry" />
        </mxCell>
        <mxCell id="EyyxdqxQYQP_QWnb_aDk-19" style="shape=connector;rounded=0;orthogonalLoop=1;jettySize=auto;html=1;exitX=0;exitY=1;exitDx=0;exitDy=0;labelBackgroundColor=default;strokeColor=#b85450;strokeWidth=3;fontFamily=Helvetica;fontSize=12;fontColor=default;endArrow=classic;entryX=0.5;entryY=0;entryDx=0;entryDy=0;edgeStyle=orthogonalEdgeStyle;fillColor=#f8cecc;" parent="1" source="EyyxdqxQYQP_QWnb_aDk-16" target="EyyxdqxQYQP_QWnb_aDk-20" edge="1">
          <mxGeometry relative="1" as="geometry">
            <mxPoint x="240" y="1060" as="targetPoint" />
            <Array as="points">
              <mxPoint x="240" y="1015" />
            </Array>
          </mxGeometry>
        </mxCell>
        <mxCell id="eP0m3ZbNeXoQ2vMLRKZ7-1" value="No" style="edgeLabel;html=1;align=center;verticalAlign=middle;resizable=0;points=[];fontSize=12;fontFamily=Helvetica;fontColor=default;" parent="EyyxdqxQYQP_QWnb_aDk-19" vertex="1" connectable="0">
          <mxGeometry x="0.3817" y="-2" relative="1" as="geometry">
            <mxPoint x="2" as="offset" />
          </mxGeometry>
        </mxCell>
        <mxCell id="eP0m3ZbNeXoQ2vMLRKZ7-5" style="edgeStyle=orthogonalEdgeStyle;shape=connector;rounded=0;orthogonalLoop=1;jettySize=auto;html=1;exitX=1;exitY=1;exitDx=0;exitDy=0;entryX=0.5;entryY=0;entryDx=0;entryDy=0;labelBackgroundColor=default;strokeColor=#82b366;strokeWidth=3;fontFamily=Helvetica;fontSize=12;fontColor=default;endArrow=classic;fillColor=#d5e8d4;" parent="1" source="EyyxdqxQYQP_QWnb_aDk-16" target="eP0m3ZbNeXoQ2vMLRKZ7-4" edge="1">
          <mxGeometry relative="1" as="geometry">
            <Array as="points">
              <mxPoint x="400" y="1015" />
            </Array>
          </mxGeometry>
        </mxCell>
        <mxCell id="eP0m3ZbNeXoQ2vMLRKZ7-6" value="Yes" style="edgeLabel;html=1;align=center;verticalAlign=middle;resizable=0;points=[];fontSize=12;fontFamily=Helvetica;fontColor=default;" parent="eP0m3ZbNeXoQ2vMLRKZ7-5" vertex="1" connectable="0">
          <mxGeometry x="0.3675" y="1" relative="1" as="geometry">
            <mxPoint as="offset" />
          </mxGeometry>
        </mxCell>
        <mxCell id="EyyxdqxQYQP_QWnb_aDk-16" value="하트가 &lt;br&gt;10개인가?" style="rhombus;whiteSpace=wrap;html=1;rounded=0;strokeColor=default;strokeWidth=5;fontFamily=Helvetica;fontSize=12;fontColor=default;fillColor=none;" parent="1" vertex="1">
          <mxGeometry x="271" y="940" width="100" height="100" as="geometry" />
        </mxCell>
        <mxCell id="eP0m3ZbNeXoQ2vMLRKZ7-2" style="edgeStyle=orthogonalEdgeStyle;shape=connector;rounded=0;orthogonalLoop=1;jettySize=auto;html=1;exitX=0.25;exitY=0;exitDx=0;exitDy=0;entryX=1;entryY=0.75;entryDx=0;entryDy=0;labelBackgroundColor=default;strokeColor=default;strokeWidth=3;fontFamily=Helvetica;fontSize=12;fontColor=default;endArrow=classic;" parent="1" source="EyyxdqxQYQP_QWnb_aDk-20" target="KB-Oj_nQkgOusc2tOekF-7" edge="1">
          <mxGeometry relative="1" as="geometry" />
        </mxCell>
        <mxCell id="eP0m3ZbNeXoQ2vMLRKZ7-3" value="판정 로그를 하트 개수 &lt;br&gt;차감 단위로 가공한&lt;br&gt;굿엔딩&lt;br&gt;UI 제공" style="edgeLabel;html=1;align=center;verticalAlign=middle;resizable=0;points=[];fontSize=12;fontFamily=Helvetica;fontColor=default;" parent="eP0m3ZbNeXoQ2vMLRKZ7-2" vertex="1" connectable="0">
          <mxGeometry x="0.3908" relative="1" as="geometry">
            <mxPoint x="19" y="23" as="offset" />
          </mxGeometry>
        </mxCell>
        <mxCell id="eP0m3ZbNeXoQ2vMLRKZ7-22" style="edgeStyle=orthogonalEdgeStyle;shape=connector;rounded=0;orthogonalLoop=1;jettySize=auto;html=1;exitX=1;exitY=0.25;exitDx=0;exitDy=0;entryX=0;entryY=0.25;entryDx=0;entryDy=0;labelBackgroundColor=default;strokeColor=default;strokeWidth=3;fontFamily=Helvetica;fontSize=12;fontColor=default;endArrow=none;endFill=0;" parent="1" source="EyyxdqxQYQP_QWnb_aDk-20" target="eP0m3ZbNeXoQ2vMLRKZ7-4" edge="1">
          <mxGeometry relative="1" as="geometry" />
        </mxCell>
        <mxCell id="eP0m3ZbNeXoQ2vMLRKZ7-25" style="edgeStyle=orthogonalEdgeStyle;shape=connector;rounded=0;orthogonalLoop=1;jettySize=auto;html=1;exitX=0.5;exitY=1;exitDx=0;exitDy=0;entryX=0.5;entryY=0;entryDx=0;entryDy=0;labelBackgroundColor=default;strokeColor=default;strokeWidth=5;fontFamily=Helvetica;fontSize=12;fontColor=default;endArrow=classic;" parent="1" source="EyyxdqxQYQP_QWnb_aDk-20" target="eP0m3ZbNeXoQ2vMLRKZ7-24" edge="1">
          <mxGeometry relative="1" as="geometry" />
        </mxCell>
        <mxCell id="EyyxdqxQYQP_QWnb_aDk-20" value="&lt;font color=&quot;#00cc00&quot;&gt;CH05-pEnd-B&lt;br&gt;&lt;/font&gt;배드엔딩 로그" style="shape=process;whiteSpace=wrap;html=1;backgroundOutline=1;rounded=0;strokeColor=default;strokeWidth=5;fontFamily=Helvetica;fontSize=12;fontColor=default;fillColor=none;" parent="1" vertex="1">
          <mxGeometry x="180" y="1060" width="120" height="50" as="geometry" />
        </mxCell>
        <mxCell id="eP0m3ZbNeXoQ2vMLRKZ7-16" style="edgeStyle=orthogonalEdgeStyle;shape=connector;rounded=0;orthogonalLoop=1;jettySize=auto;html=1;exitX=0.25;exitY=1;exitDx=0;exitDy=0;entryX=0.5;entryY=1;entryDx=0;entryDy=0;labelBackgroundColor=default;strokeColor=default;strokeWidth=3;fontFamily=Helvetica;fontSize=12;fontColor=default;endArrow=classic;" parent="1" source="eP0m3ZbNeXoQ2vMLRKZ7-4" target="KB-Oj_nQkgOusc2tOekF-7" edge="1">
          <mxGeometry relative="1" as="geometry" />
        </mxCell>
        <mxCell id="eP0m3ZbNeXoQ2vMLRKZ7-17" value="판정 로그를 하트 개수&lt;br style=&quot;border-color: var(--border-color);&quot;&gt;차감 단위로 가공한&lt;br&gt;배드엔딩&lt;br&gt;UI 제공" style="edgeLabel;html=1;align=center;verticalAlign=middle;resizable=0;points=[];fontSize=12;fontFamily=Helvetica;fontColor=default;" parent="eP0m3ZbNeXoQ2vMLRKZ7-16" vertex="1" connectable="0">
          <mxGeometry x="0.7163" relative="1" as="geometry">
            <mxPoint y="16" as="offset" />
          </mxGeometry>
        </mxCell>
        <mxCell id="eP0m3ZbNeXoQ2vMLRKZ7-18" style="edgeStyle=orthogonalEdgeStyle;shape=connector;rounded=0;orthogonalLoop=1;jettySize=auto;html=1;exitX=1;exitY=0.25;exitDx=0;exitDy=0;entryX=0;entryY=1;entryDx=0;entryDy=0;labelBackgroundColor=default;strokeColor=default;strokeWidth=7;fontFamily=Helvetica;fontSize=12;fontColor=default;endArrow=classic;" parent="1" source="eP0m3ZbNeXoQ2vMLRKZ7-4" target="KB-Oj_nQkgOusc2tOekF-11" edge="1">
          <mxGeometry relative="1" as="geometry" />
        </mxCell>
        <mxCell id="eP0m3ZbNeXoQ2vMLRKZ7-19" value="사용자의 선택&lt;br&gt;로그 요청" style="edgeLabel;html=1;align=center;verticalAlign=middle;resizable=0;points=[];fontSize=12;fontFamily=Helvetica;fontColor=default;" parent="eP0m3ZbNeXoQ2vMLRKZ7-18" vertex="1" connectable="0">
          <mxGeometry x="0.1978" y="-1" relative="1" as="geometry">
            <mxPoint x="-4" as="offset" />
          </mxGeometry>
        </mxCell>
        <mxCell id="eP0m3ZbNeXoQ2vMLRKZ7-23" style="edgeStyle=orthogonalEdgeStyle;shape=connector;rounded=0;orthogonalLoop=1;jettySize=auto;html=1;exitX=0;exitY=0.75;exitDx=0;exitDy=0;entryX=1;entryY=0.75;entryDx=0;entryDy=0;labelBackgroundColor=default;strokeColor=default;strokeWidth=3;fontFamily=Helvetica;fontSize=12;fontColor=default;endArrow=classic;endFill=1;" parent="1" source="eP0m3ZbNeXoQ2vMLRKZ7-4" target="EyyxdqxQYQP_QWnb_aDk-20" edge="1">
          <mxGeometry relative="1" as="geometry" />
        </mxCell>
        <mxCell id="eP0m3ZbNeXoQ2vMLRKZ7-26" style="edgeStyle=orthogonalEdgeStyle;shape=connector;rounded=0;orthogonalLoop=1;jettySize=auto;html=1;exitX=0.5;exitY=1;exitDx=0;exitDy=0;entryX=0.5;entryY=0;entryDx=0;entryDy=0;labelBackgroundColor=default;strokeColor=default;strokeWidth=5;fontFamily=Helvetica;fontSize=12;fontColor=default;endArrow=classic;" parent="1" source="eP0m3ZbNeXoQ2vMLRKZ7-4" target="eP0m3ZbNeXoQ2vMLRKZ7-24" edge="1">
          <mxGeometry relative="1" as="geometry" />
        </mxCell>
        <mxCell id="eP0m3ZbNeXoQ2vMLRKZ7-4" value="&lt;font style=&quot;border-color: var(--border-color);&quot; color=&quot;#00cc00&quot;&gt;CH05-pEnd-G&lt;br style=&quot;border-color: var(--border-color);&quot;&gt;&lt;/font&gt;굿엔딩 로그" style="shape=process;whiteSpace=wrap;html=1;backgroundOutline=1;rounded=0;strokeColor=default;strokeWidth=5;fontFamily=Helvetica;fontSize=12;fontColor=default;fillColor=none;" parent="1" vertex="1">
          <mxGeometry x="340" y="1060" width="120" height="50" as="geometry" />
        </mxCell>
        <mxCell id="eP0m3ZbNeXoQ2vMLRKZ7-31" style="edgeStyle=orthogonalEdgeStyle;shape=connector;rounded=0;orthogonalLoop=1;jettySize=auto;html=1;exitX=0.5;exitY=1;exitDx=0;exitDy=0;entryX=0.5;entryY=0;entryDx=0;entryDy=0;labelBackgroundColor=default;strokeColor=#b85450;strokeWidth=3;fontFamily=Helvetica;fontSize=12;fontColor=default;endArrow=classic;fillColor=#f8cecc;" parent="1" source="eP0m3ZbNeXoQ2vMLRKZ7-24" target="eP0m3ZbNeXoQ2vMLRKZ7-30" edge="1">
          <mxGeometry relative="1" as="geometry" />
        </mxCell>
        <mxCell id="eP0m3ZbNeXoQ2vMLRKZ7-32" value="No" style="edgeLabel;html=1;align=center;verticalAlign=middle;resizable=0;points=[];fontSize=12;fontFamily=Helvetica;fontColor=default;" parent="eP0m3ZbNeXoQ2vMLRKZ7-31" vertex="1" connectable="0">
          <mxGeometry x="-0.123" relative="1" as="geometry">
            <mxPoint as="offset" />
          </mxGeometry>
        </mxCell>
        <mxCell id="6xgjJaFBvFXuDi6TFXn_-2" style="edgeStyle=orthogonalEdgeStyle;shape=connector;rounded=0;orthogonalLoop=1;jettySize=auto;html=1;exitX=1;exitY=0.5;exitDx=0;exitDy=0;labelBackgroundColor=default;strokeColor=#82b366;strokeWidth=3;fontFamily=Helvetica;fontSize=12;fontColor=default;endArrow=classic;fillColor=#d5e8d4;" parent="1" source="eP0m3ZbNeXoQ2vMLRKZ7-24" target="6xgjJaFBvFXuDi6TFXn_-1" edge="1">
          <mxGeometry relative="1" as="geometry" />
        </mxCell>
        <mxCell id="6xgjJaFBvFXuDi6TFXn_-3" value="Yes" style="edgeLabel;html=1;align=center;verticalAlign=middle;resizable=0;points=[];fontSize=12;fontFamily=Helvetica;fontColor=default;" parent="6xgjJaFBvFXuDi6TFXn_-2" vertex="1" connectable="0">
          <mxGeometry x="-0.3451" y="-3" relative="1" as="geometry">
            <mxPoint x="2" y="7" as="offset" />
          </mxGeometry>
        </mxCell>
        <mxCell id="eP0m3ZbNeXoQ2vMLRKZ7-24" value="사용자가&lt;br&gt;리플레이를&lt;br&gt;원하는가?" style="rhombus;whiteSpace=wrap;html=1;rounded=0;strokeColor=default;strokeWidth=5;fontFamily=Helvetica;fontSize=12;fontColor=default;fillColor=none;" parent="1" vertex="1">
          <mxGeometry x="271" y="1180" width="100" height="100" as="geometry" />
        </mxCell>
        <mxCell id="eP0m3ZbNeXoQ2vMLRKZ7-28" style="edgeStyle=orthogonalEdgeStyle;shape=connector;rounded=0;orthogonalLoop=1;jettySize=auto;html=1;exitX=1;exitY=0.25;exitDx=0;exitDy=0;entryX=0.145;entryY=0.375;entryDx=0;entryDy=0;entryPerimeter=0;labelBackgroundColor=default;strokeColor=default;strokeWidth=3;fontFamily=Helvetica;fontSize=12;fontColor=default;endArrow=classic;" parent="1" source="eP0m3ZbNeXoQ2vMLRKZ7-27" target="eP0m3ZbNeXoQ2vMLRKZ7-24" edge="1">
          <mxGeometry relative="1" as="geometry" />
        </mxCell>
        <mxCell id="eP0m3ZbNeXoQ2vMLRKZ7-29" value="리플레이 여부 선택" style="edgeLabel;html=1;align=center;verticalAlign=middle;resizable=0;points=[];fontSize=12;fontFamily=Helvetica;fontColor=default;" parent="eP0m3ZbNeXoQ2vMLRKZ7-28" vertex="1" connectable="0">
          <mxGeometry x="-0.3218" relative="1" as="geometry">
            <mxPoint as="offset" />
          </mxGeometry>
        </mxCell>
        <mxCell id="eP0m3ZbNeXoQ2vMLRKZ7-27" value="&lt;font style=&quot;font-size: 12px;&quot;&gt;모바일 디바이스&lt;/font&gt;" style="rounded=0;whiteSpace=wrap;html=1;fillColor=#ffe6cc;strokeWidth=5;strokeColor=#d79b00;" parent="1" vertex="1">
          <mxGeometry x="10" y="1205" width="100" height="50" as="geometry" />
        </mxCell>
        <mxCell id="eP0m3ZbNeXoQ2vMLRKZ7-30" value="플레이&lt;br&gt;종료" style="ellipse;shape=doubleEllipse;html=1;dashed=0;whiteSpace=wrap;aspect=fixed;rounded=0;strokeColor=default;strokeWidth=5;fontFamily=Helvetica;fontSize=12;fontColor=default;fillColor=none;" parent="1" vertex="1">
          <mxGeometry x="291" y="1430" width="60" height="60" as="geometry" />
        </mxCell>
        <mxCell id="6xgjJaFBvFXuDi6TFXn_-4" style="edgeStyle=orthogonalEdgeStyle;shape=connector;rounded=0;orthogonalLoop=1;jettySize=auto;html=1;exitX=1;exitY=0.5;exitDx=0;exitDy=0;labelBackgroundColor=default;strokeColor=#82b366;strokeWidth=3;fontFamily=Helvetica;fontSize=12;fontColor=default;endArrow=classic;entryX=0.5;entryY=0;entryDx=0;entryDy=0;fillColor=#d5e8d4;" parent="1" source="6xgjJaFBvFXuDi6TFXn_-1" target="lOOeCcCA2mXFK2r3pZeW-5" edge="1">
          <mxGeometry relative="1" as="geometry">
            <mxPoint x="800" y="863.3333333333334" as="targetPoint" />
            <Array as="points">
              <mxPoint x="649" y="1290" />
              <mxPoint x="820" y="1290" />
              <mxPoint x="820" y="30" />
              <mxPoint x="321" y="30" />
            </Array>
          </mxGeometry>
        </mxCell>
        <mxCell id="6xgjJaFBvFXuDi6TFXn_-6" value="Yes" style="edgeLabel;html=1;align=center;verticalAlign=middle;resizable=0;points=[];fontSize=12;fontFamily=Helvetica;fontColor=default;" parent="6xgjJaFBvFXuDi6TFXn_-4" vertex="1" connectable="0">
          <mxGeometry x="-0.9537" relative="1" as="geometry">
            <mxPoint y="36" as="offset" />
          </mxGeometry>
        </mxCell>
        <mxCell id="6xgjJaFBvFXuDi6TFXn_-7" style="edgeStyle=orthogonalEdgeStyle;shape=connector;rounded=0;orthogonalLoop=1;jettySize=auto;html=1;exitX=0.5;exitY=1;exitDx=0;exitDy=0;labelBackgroundColor=default;strokeColor=#b85450;strokeWidth=3;fontFamily=Helvetica;fontSize=12;fontColor=default;endArrow=classic;fillColor=#f8cecc;entryX=0.5;entryY=0;entryDx=0;entryDy=0;" parent="1" source="6xgjJaFBvFXuDi6TFXn_-1" target="_8ErgNUgVBCjQPyhI55C-1" edge="1">
          <mxGeometry relative="1" as="geometry">
            <mxPoint x="321.1111111111111" y="1520" as="targetPoint" />
          </mxGeometry>
        </mxCell>
        <mxCell id="_8ErgNUgVBCjQPyhI55C-2" value="No" style="edgeLabel;html=1;align=center;verticalAlign=middle;resizable=0;points=[];fontSize=12;fontFamily=Helvetica;fontColor=default;" parent="6xgjJaFBvFXuDi6TFXn_-7" vertex="1" connectable="0">
          <mxGeometry x="-0.5875" y="1" relative="1" as="geometry">
            <mxPoint x="-1" y="6" as="offset" />
          </mxGeometry>
        </mxCell>
        <mxCell id="6xgjJaFBvFXuDi6TFXn_-1" value="같은 연령,&lt;br&gt;스테이지,&lt;br&gt;난이도에서&lt;br&gt;리플레이를 &lt;br&gt;원하는가?" style="rhombus;whiteSpace=wrap;html=1;rounded=0;strokeColor=default;strokeWidth=5;fontFamily=Helvetica;fontSize=12;fontColor=default;fillColor=none;" parent="1" vertex="1">
          <mxGeometry x="510" y="1120" width="139" height="120" as="geometry" />
        </mxCell>
        <mxCell id="_8ErgNUgVBCjQPyhI55C-3" style="edgeStyle=orthogonalEdgeStyle;shape=connector;rounded=0;orthogonalLoop=1;jettySize=auto;html=1;exitX=0;exitY=0.5;exitDx=0;exitDy=0;entryX=0.25;entryY=1;entryDx=0;entryDy=0;labelBackgroundColor=default;strokeColor=default;strokeWidth=3;fontFamily=Helvetica;fontSize=12;fontColor=default;endArrow=classic;" parent="1" source="_8ErgNUgVBCjQPyhI55C-1" edge="1">
          <mxGeometry relative="1" as="geometry">
            <mxPoint x="519.5" y="1394" as="sourcePoint" />
            <mxPoint x="35" y="1254" as="targetPoint" />
            <Array as="points">
              <mxPoint x="520" y="1340" />
              <mxPoint x="35" y="1340" />
            </Array>
          </mxGeometry>
        </mxCell>
        <mxCell id="_8ErgNUgVBCjQPyhI55C-4" value="초기 화면(&lt;font style=&quot;border-color: var(--border-color);&quot; color=&quot;#00cc00&quot;&gt;CH01&lt;/font&gt;)으로 이동" style="edgeLabel;html=1;align=center;verticalAlign=middle;resizable=0;points=[];fontSize=12;fontFamily=Helvetica;fontColor=default;" parent="_8ErgNUgVBCjQPyhI55C-3" vertex="1" connectable="0">
          <mxGeometry x="0.2942" y="-2" relative="1" as="geometry">
            <mxPoint x="33" as="offset" />
          </mxGeometry>
        </mxCell>
        <mxCell id="_8ErgNUgVBCjQPyhI55C-1" value="&lt;font color=&quot;#00cc00&quot;&gt;CH01&lt;/font&gt;&lt;br&gt;연령층 선택" style="shape=process;whiteSpace=wrap;html=1;backgroundOutline=1;rounded=0;strokeColor=default;strokeWidth=5;fontFamily=Helvetica;fontSize=12;fontColor=default;fillColor=none;" parent="1" vertex="1">
          <mxGeometry x="519.5" y="1320" width="120" height="50" as="geometry" />
        </mxCell>
      </root>
    </mxGraphModel>
  </diagram>
  <diagram id="Tr93zQxuzzTiRNuOKKum" name="자료사전">
    <mxGraphModel dx="1026" dy="604" grid="1" gridSize="10" guides="1" tooltips="1" connect="1" arrows="1" fold="1" page="1" pageScale="1" pageWidth="827" pageHeight="1169" math="0" shadow="0">
      <root>
        <mxCell id="0" />
        <mxCell id="1" parent="0" />
        <mxCell id="2J3VeQXYf67gacm98zUr-1" value="외부 엔티티" style="rounded=0;whiteSpace=wrap;html=1;strokeColor=default;strokeWidth=5;fontFamily=Helvetica;fontSize=12;fontColor=default;fillColor=none;" parent="1" vertex="1">
          <mxGeometry x="30" y="215" width="120" height="60" as="geometry" />
        </mxCell>
        <mxCell id="2J3VeQXYf67gacm98zUr-2" value="프로세스" style="shape=process;whiteSpace=wrap;html=1;backgroundOutline=1;rounded=0;strokeColor=default;strokeWidth=5;fontFamily=Helvetica;fontSize=12;fontColor=default;fillColor=none;" parent="1" vertex="1">
          <mxGeometry x="240" y="215" width="120" height="60" as="geometry" />
        </mxCell>
        <mxCell id="czZDzVJmYLA-W2iQlY94-1" value="데이터 저장소" style="html=1;dashed=0;whiteSpace=wrap;shape=mxgraph.dfd.dataStoreID;align=center;spacingLeft=3;points=[[0,0],[0.5,0],[1,0],[0,0.5],[1,0.5],[0,1],[0.5,1],[1,1]];rounded=0;strokeColor=default;strokeWidth=5;fontFamily=Helvetica;fontSize=12;fontColor=default;fillColor=none;" parent="1" vertex="1">
          <mxGeometry x="440" y="227.5" width="180" height="35" as="geometry" />
        </mxCell>
        <mxCell id="m0bM_iy5zOCUnAhNwgvX-1" value="&lt;span style=&quot;font-size: 11px;&quot;&gt;분기&lt;br&gt;&lt;/span&gt;" style="rhombus;whiteSpace=wrap;html=1;rounded=0;strokeColor=default;strokeWidth=3;fontFamily=Helvetica;fontSize=12;fontColor=default;fillColor=none;" parent="1" vertex="1">
          <mxGeometry x="687" y="200" width="90" height="90" as="geometry" />
        </mxCell>
        <mxCell id="ynURF1eRf1arZVUokdW6-1" value="종단점" style="ellipse;shape=doubleEllipse;html=1;dashed=0;whiteSpace=wrap;aspect=fixed;rounded=0;strokeColor=default;strokeWidth=5;fontFamily=Helvetica;fontSize=12;fontColor=default;fillColor=none;" parent="1" vertex="1">
          <mxGeometry x="850" y="215" width="60" height="60" as="geometry" />
        </mxCell>
      </root>
    </mxGraphModel>
  </diagram>
</mxfile>
